<svg xmlns="http://www.w3.org/2000/svg" viewBox="0 0 399.374 12.56"><g id="Layer_2" data-name="Layer 2"><g id="Layer_3" data-name="Layer 3"><path d="M2.31,7.588v.241a2.235,2.235,0,0,0,2.18,2.518A2.188,2.188,0,0,0,6.672,8.1C6.672,7,5.9,6.337,4.3,5.792c1.091-.5,1.62-.914,1.62-1.764A1.337,1.337,0,0,0,4.6,2.648,1.41,1.41,0,0,0,3.191,4.124c0,.1.017.257.033.481H.963c.433-.786.352-1.667.753-2.357A3.39,3.39,0,0,1,4.555.692,3.261,3.261,0,0,1,7.906,3.9a2.881,2.881,0,0,1-.512,1.492A3.257,3.257,0,0,1,8.725,8.229a4.214,4.214,0,0,1-8.2,1.476A11.849,11.849,0,0,0,0,7.588Z" fill="#fff"/><path d="M17.733,6.557V.074a.876.876,0,0,0,.44.131c.234,0,.636-.111,1.234-.111A1.881,1.881,0,0,1,21.484,2.1a1.571,1.571,0,0,1-1,1.6A2.437,2.437,0,0,1,22.12,5.435a3.809,3.809,0,0,0,.486,1.477H20.951a.676.676,0,0,0,.187-.431,2.42,2.42,0,0,0-2.179-2.262V6.557a.446.446,0,0,0,.215.355H17.527A.434.434,0,0,0,17.733,6.557Zm1.59-3.4a.909.909,0,0,0,.964-.945.911.911,0,0,0-.926-.954,2.323,2.323,0,0,0-.4.047V3.124C19.127,3.143,19.258,3.152,19.323,3.152Z" fill="#fff"/><path d="M27.62,6.557V0a1.038,1.038,0,0,0,.486.178c.281,0,.73-.169,1.366-.169a3.433,3.433,0,0,1,3.5,3.536c0,1.974-1.384,3.367-3.882,3.367H27.4A.46.46,0,0,0,27.62,6.557Zm1.234-.814c.066,0,.131.009.2.009a2.359,2.359,0,0,0,2.609-2.3,2.209,2.209,0,0,0-2.282-2.226c-.149,0-.327.009-.524.028Z" fill="#fff"/><path d="M58.474,11.581a1.387,1.387,0,0,0-.065-.449L57.9,9.721H53.438l-.465,1.411a1.584,1.584,0,0,0-.08.466,1.788,1.788,0,0,0,.16.657H50.07a2.771,2.771,0,0,0,.577-.946l3.721-9.83a1.2,1.2,0,0,0,.08-.45A3.117,3.117,0,0,0,54.4.676h2.454L60.7,11.309a2.957,2.957,0,0,0,.594.946H58.313A1.8,1.8,0,0,0,58.474,11.581ZM57.223,7.652l-1.556-4.6-1.54,4.6Z" fill="#fff"/><path d="M72.208,12.255H69.37a.773.773,0,0,0,.368-.609V1.285A.774.774,0,0,0,69.37.676h2.485l3.689,6.367a11.959,11.959,0,0,1,.978,2.245,13.605,13.605,0,0,1-.209-2.245V1.285a.771.771,0,0,0-.368-.609h2.838a.753.753,0,0,0-.352.609V11.661a.686.686,0,0,0,.352.594h-2.47l-3.864-6.8a7.343,7.343,0,0,1-.77-1.828c.112,1.026.176,1.7.176,1.988v6.046A.687.687,0,0,0,72.208,12.255Z" fill="#fff"/><path d="M90.674,12.255H87.836a.773.773,0,0,0,.368-.609V1.285a.774.774,0,0,0-.368-.609h2.485L94.01,7.043a11.959,11.959,0,0,1,.978,2.245,13.605,13.605,0,0,1-.209-2.245V1.285a.774.774,0,0,0-.368-.609h2.838a.754.754,0,0,0-.353.609V11.661a.687.687,0,0,0,.353.594h-2.47l-3.864-6.8a7.343,7.343,0,0,1-.77-1.828c.112,1.026.176,1.7.176,1.988v6.046A.687.687,0,0,0,90.674,12.255Z" fill="#fff"/><path d="M106.43.676h2.854a.775.775,0,0,0-.369.609V11.661a.7.7,0,0,0,.369.594H106.43a.774.774,0,0,0,.369-.609V1.285A.775.775,0,0,0,106.43.676Z" fill="#fff"/><path d="M117.628,1.622a2.89,2.89,0,0,0-.577-.946h2.934a1.813,1.813,0,0,0-.16.658,1.394,1.394,0,0,0,.08.449L122.6,9.865l2.677-8.082a1.461,1.461,0,0,0,.08-.466,1.7,1.7,0,0,0-.16-.641h2.967a2.594,2.594,0,0,0-.577.946L123.9,11.405a1.623,1.623,0,0,0-.08.449c0,.128.033.256.048.4h-2.437Z" fill="#fff"/><path d="M138.291,7.428v2.919H141.9a.749.749,0,0,0,.594-.369v2.277h-6.7a.773.773,0,0,0,.368-.609V1.285a.774.774,0,0,0-.368-.609h6.7V2.953a.747.747,0,0,0-.594-.368h-3.607V5.52h2.261a.728.728,0,0,0,.609-.37V7.8a.771.771,0,0,0-.609-.369Z" fill="#fff"/><path d="M151.768,11.646V.532a1.516,1.516,0,0,0,.753.225c.4,0,1.091-.194,2.118-.194A3.226,3.226,0,0,1,158.2,4.012a2.693,2.693,0,0,1-1.716,2.742,4.189,4.189,0,0,1,2.807,2.967,6.524,6.524,0,0,0,.834,2.534h-2.839a1.158,1.158,0,0,0,.321-.737,4.15,4.15,0,0,0-3.737-3.881v4.009a.774.774,0,0,0,.369.609h-2.822A.753.753,0,0,0,151.768,11.646Zm2.726-5.838a1.558,1.558,0,0,0,1.652-1.62,1.563,1.563,0,0,0-1.588-1.635,4.153,4.153,0,0,0-.69.08V5.76C154.157,5.792,154.382,5.808,154.494,5.808Z" fill="#fff"/><path d="M168.213,9.16a2.4,2.4,0,0,0,2.133,1.331,1.805,1.805,0,0,0,1.876-1.812c0-1.091-.834-1.668-2.117-2.5a3.348,3.348,0,0,1-1.8-2.983A2.743,2.743,0,0,1,171.083.388c.514,0,.963.16,1.363.16A1.624,1.624,0,0,0,173.1.371v3a2.121,2.121,0,0,0-1.667-1.106.948.948,0,0,0-1.027.978c0,.705.69,1.059,1.764,1.8a4.035,4.035,0,0,1,2.1,3.641,3.669,3.669,0,0,1-3.848,3.848c-.642,0-1.2-.208-1.636-.208a1.5,1.5,0,0,0-.577.16Z" fill="#fff"/><path d="M190.478,11.581a1.387,1.387,0,0,0-.065-.449L189.9,9.721h-4.459l-.464,1.411a1.585,1.585,0,0,0-.081.466,1.791,1.791,0,0,0,.161.657h-2.983a2.787,2.787,0,0,0,.577-.946l3.721-9.83a1.2,1.2,0,0,0,.08-.45A3.117,3.117,0,0,0,186.4.676h2.453l3.849,10.633a2.957,2.957,0,0,0,.594.946h-2.983A1.8,1.8,0,0,0,190.478,11.581Zm-1.251-3.929-1.556-4.6-1.54,4.6Z" fill="#fff"/><path d="M201.727,11.646V.532a1.516,1.516,0,0,0,.753.225c.4,0,1.091-.194,2.118-.194a3.226,3.226,0,0,1,3.559,3.449,2.693,2.693,0,0,1-1.716,2.742,4.189,4.189,0,0,1,2.807,2.967,6.524,6.524,0,0,0,.834,2.534h-2.839a1.158,1.158,0,0,0,.321-.737,4.15,4.15,0,0,0-3.737-3.881v4.009a.774.774,0,0,0,.369.609h-2.822A.753.753,0,0,0,201.727,11.646Zm2.726-5.838a1.557,1.557,0,0,0,1.651-1.62,1.563,1.563,0,0,0-1.587-1.635,4.153,4.153,0,0,0-.69.08V5.76C204.116,5.792,204.341,5.808,204.453,5.808Z" fill="#fff"/><path d="M223.19,12.255h-2.838a.771.771,0,0,0,.369-.609V6.594l-3.336-5.2a5.574,5.574,0,0,0-.5-.721h2.951a.888.888,0,0,0-.193.449.788.788,0,0,0,.128.4l2,2.967,2-2.967a.735.735,0,0,0,.128-.384.878.878,0,0,0-.192-.466h2.951a4.646,4.646,0,0,0-.5.721l-3.335,5.2v5.067A.686.686,0,0,0,223.19,12.255Z" fill="#fff"/><path d="M247.209.676h2.87a.774.774,0,0,0-.368.609v9.062h3.319a.746.746,0,0,0,.593-.369v2.277h-6.414a.773.773,0,0,0,.368-.609V1.285A.774.774,0,0,0,247.209.676Z" fill="#fff"/><path d="M262.273.676h2.855a.775.775,0,0,0-.369.609V11.661a.7.7,0,0,0,.369.594h-2.855a.773.773,0,0,0,.37-.609V1.285A.774.774,0,0,0,262.273.676Z" fill="#fff"/><path d="M273.472,1.622A2.907,2.907,0,0,0,272.9.676h2.934a1.793,1.793,0,0,0-.16.658,1.394,1.394,0,0,0,.08.449l2.694,8.082,2.678-8.082a1.461,1.461,0,0,0,.08-.466,1.7,1.7,0,0,0-.16-.641h2.967a2.594,2.594,0,0,0-.577.946l-3.689,9.783a1.623,1.623,0,0,0-.08.449,3.919,3.919,0,0,0,.048.4h-2.438Z" fill="#fff"/><path d="M294.135,7.428v2.919h3.607a.749.749,0,0,0,.594-.369v2.277h-6.7a.773.773,0,0,0,.368-.609V1.285a.774.774,0,0,0-.368-.609h6.7V2.953a.747.747,0,0,0-.594-.368h-3.607V5.52H296.4a.728.728,0,0,0,.609-.37V7.8a.771.771,0,0,0-.609-.369Z" fill="#fff"/><path d="M307.114,9.16a2.407,2.407,0,0,0,2.133,1.331,1.805,1.805,0,0,0,1.876-1.812c0-1.091-.834-1.668-2.116-2.5a3.347,3.347,0,0,1-1.8-2.983A2.743,2.743,0,0,1,309.984.388c.514,0,.963.16,1.364.16a1.628,1.628,0,0,0,.658-.177v3a2.122,2.122,0,0,0-1.668-1.106.947.947,0,0,0-1.026.978c0,.705.689,1.059,1.763,1.8a4.036,4.036,0,0,1,2.1,3.641,3.67,3.67,0,0,1-3.849,3.848c-.641,0-1.2-.208-1.636-.208a1.507,1.507,0,0,0-.577.16Z" fill="#fff"/><path d="M323.814,11.646V2.6h-1.8a.743.743,0,0,0-.593.369V.676h6.911V2.97a.77.77,0,0,0-.609-.369h-1.8v9.06a.7.7,0,0,0,.369.594h-2.855A.77.77,0,0,0,323.814,11.646Z" fill="#fff"/><path d="M337.1,11.646V.532a1.516,1.516,0,0,0,.754.225c.4,0,1.09-.194,2.117-.194a3.226,3.226,0,0,1,3.559,3.449,2.693,2.693,0,0,1-1.716,2.742,4.189,4.189,0,0,1,2.807,2.967,6.524,6.524,0,0,0,.834,2.534h-2.839a1.16,1.16,0,0,0,.322-.737A4.151,4.151,0,0,0,339.2,7.637v4.009a.774.774,0,0,0,.369.609h-2.822A.753.753,0,0,0,337.1,11.646Zm2.726-5.838a1.558,1.558,0,0,0,1.652-1.62,1.563,1.563,0,0,0-1.588-1.635,4.153,4.153,0,0,0-.69.08V5.76C339.488,5.792,339.713,5.808,339.825,5.808Z" fill="#fff"/><path d="M356.189,7.428v2.919H359.8a.75.75,0,0,0,.594-.369v2.277h-6.7a.773.773,0,0,0,.368-.609V1.285a.774.774,0,0,0-.368-.609h6.7V2.953a.749.749,0,0,0-.594-.368h-3.608V5.52h2.261a.731.731,0,0,0,.61-.37V7.8a.772.772,0,0,0-.61-.369Z" fill="#fff"/><path d="M376.69,11.581a1.386,1.386,0,0,0-.064-.449l-.513-1.411h-4.459l-.465,1.411a1.617,1.617,0,0,0-.08.466,1.791,1.791,0,0,0,.161.657h-2.983a2.787,2.787,0,0,0,.577-.946l3.721-9.83a1.2,1.2,0,0,0,.08-.45,3.117,3.117,0,0,0-.048-.353h2.453l3.849,10.633a2.957,2.957,0,0,0,.594.946H376.53A1.793,1.793,0,0,0,376.69,11.581Zm-1.251-3.929-1.555-4.6-1.54,4.6Z" fill="#fff"/><path d="M389.944,6.449l-.626,4.732a1.747,1.747,0,0,0-.015.272,1.349,1.349,0,0,0,.257.8h-2.711a2.033,2.033,0,0,0,.384-.914l1.428-9.927v-.1a1.1,1.1,0,0,0-.24-.641h2.325l1.8,5.213c.064.192.272.882.562,2.084.24-.93.464-1.619.625-2.1l1.748-5.2H397.8a1.1,1.1,0,0,0-.24.641v.1l1.427,9.927a2.035,2.035,0,0,0,.385.914H396.68a1.356,1.356,0,0,0,.257-.8,1.544,1.544,0,0,0-.017-.272l-.642-4.715q-.072-.577-.192-2.262c-.288,1.187-.513,1.86-.593,2.085L393.1,12.56l-2.438-6.223a11.028,11.028,0,0,1-.529-2.133C390.089,5.055,390.024,5.808,389.944,6.449Z" fill="#fff"/></g></g></svg>