<svg xmlns="http://www.w3.org/2000/svg" viewBox="0 0 344.77 19.406"><g id="Layer_2" data-name="Layer 2"><g id="Layer_3" data-name="Layer 3"><path d="M9.779,3.107A6.117,6.117,0,0,0,3.361,9.321a6.357,6.357,0,0,0,10.518,5.042v5.043a3.317,3.317,0,0,0-1.324-.357c-.662,0-1.706.229-3.158.229a9.319,9.319,0,0,1-6.188-2.495A9.513,9.513,0,0,1,0,9.524,9.35,9.35,0,0,1,9.626.051C10.8.051,11.766.2,12.5.2A6.2,6.2,0,0,0,13.879,0V4.66A6.316,6.316,0,0,0,9.779,3.107Z" fill="#fff"/><path d="M19.663,11.23v4.636h5.731a1.185,1.185,0,0,0,.942-.586V18.9H15.69a1.225,1.225,0,0,0,.586-.967V1.478A1.222,1.222,0,0,0,15.69.51H26.336V4.126a1.185,1.185,0,0,0-.942-.586H19.663V8.2h3.591a1.153,1.153,0,0,0,.968-.586v4.2a1.227,1.227,0,0,0-.968-.586Z" fill="#fff"/><path d="M28.911,17.929V.28a2.4,2.4,0,0,0,1.2.357c.637,0,1.732-.306,3.362-.306,3.565,0,5.653,2.088,5.653,5.476A4.276,4.276,0,0,1,36.4,10.161a6.646,6.646,0,0,1,4.457,4.712c.357,1.2.306,2.674,1.325,4.023H37.672a1.835,1.835,0,0,0,.509-1.171,6.592,6.592,0,0,0-5.934-6.163v6.367a1.225,1.225,0,0,0,.586.967H28.351A1.194,1.194,0,0,0,28.911,17.929Zm4.329-9.27a2.473,2.473,0,0,0,2.623-2.572,2.483,2.483,0,0,0-2.52-2.6,6.633,6.633,0,0,0-1.1.127V8.582C32.706,8.634,33.062,8.659,33.24,8.659Z" fill="#fff"/><path d="M43.3.51h4.533a1.222,1.222,0,0,0-.586.968V17.954a1.117,1.117,0,0,0,.586.942H43.3a1.225,1.225,0,0,0,.586-.967V1.478A1.222,1.222,0,0,0,43.3.51Z" fill="#fff"/><path d="M53.059,17.929V3.565H50.206a1.188,1.188,0,0,0-.942.586V.51H60.24V4.151a1.227,1.227,0,0,0-.968-.586H56.42V17.954a1.117,1.117,0,0,0,.586.942H52.473A1.227,1.227,0,0,0,53.059,17.929Z" fill="#fff"/><path d="M72.212,17.827a2.179,2.179,0,0,0-.1-.713L71.3,14.873H64.216l-.739,2.241a2.478,2.478,0,0,0-.127.739A2.823,2.823,0,0,0,63.6,18.9H58.867a4.408,4.408,0,0,0,.917-1.5L65.692,1.782a1.864,1.864,0,0,0,.128-.713A4.776,4.776,0,0,0,65.743.51h3.9l6.112,16.884a4.675,4.675,0,0,0,.942,1.5H71.957A2.833,2.833,0,0,0,72.212,17.827Zm-1.986-6.239-2.47-7.31-2.445,7.31Z" fill="#fff"/><path d="M81.919,18.9H77.36a1.223,1.223,0,0,0,.586-.967V1.478A1.188,1.188,0,0,0,77.36.51h4.559a1.188,1.188,0,0,0-.586.968v6.29l4.406-5.934a1.035,1.035,0,0,0,.255-.662,1.133,1.133,0,0,0-.28-.662h5.144a7.906,7.906,0,0,0-1.045,1.069L84.059,9.092c2.648.586,4.634,2.317,6.009,5.2,1.044,2.165.943,3.973,1.987,4.609H87.42a4.171,4.171,0,0,0,.2-1.171c0-2.521-2.521-5.831-6.291-6.29v6.494A1.155,1.155,0,0,0,81.919,18.9Z" fill="#fff"/><path d="M104.027,17.827a2.205,2.205,0,0,0-.1-.713l-.816-2.241H96.031l-.739,2.241a2.51,2.51,0,0,0-.127.739A2.826,2.826,0,0,0,95.42,18.9H90.683a4.424,4.424,0,0,0,.917-1.5L97.508,1.782a1.883,1.883,0,0,0,.128-.713A5,5,0,0,0,97.559.51h3.9l6.112,16.884a4.678,4.678,0,0,0,.943,1.5h-4.738A2.814,2.814,0,0,0,104.027,17.827Zm-1.986-6.239-2.47-7.31-2.445,7.31Z" fill="#fff"/><path d="M113.684,18.9h-4.508a1.225,1.225,0,0,0,.586-.967V1.478a1.222,1.222,0,0,0-.586-.968h3.947l5.857,10.11a18.8,18.8,0,0,1,1.554,3.566,21.585,21.585,0,0,1-.331-3.566V1.478a1.222,1.222,0,0,0-.586-.968h4.508a1.19,1.19,0,0,0-.561.968V17.954a1.089,1.089,0,0,0,.561.942H120.2L114.065,8.1a11.689,11.689,0,0,1-1.221-2.9c.177,1.63.279,2.7.279,3.159v9.6A1.089,1.089,0,0,0,113.684,18.9Z" fill="#fff"/><path d="M137.2,17.929V3.565h-2.852a1.189,1.189,0,0,0-.943.586V.51h10.977V4.151a1.227,1.227,0,0,0-.968-.586h-2.852V17.954a1.117,1.117,0,0,0,.586.942h-4.534A1.225,1.225,0,0,0,137.2,17.929Z" fill="#fff"/><path d="M149.549,11.23v4.636h5.73a1.187,1.187,0,0,0,.943-.586V18.9H145.576a1.225,1.225,0,0,0,.586-.967V1.478a1.222,1.222,0,0,0-.586-.968h10.646V4.126a1.187,1.187,0,0,0-.943-.586h-5.73V8.2h3.591a1.151,1.151,0,0,0,.967-.586v4.2a1.224,1.224,0,0,0-.967-.586Z" fill="#fff"/><path d="M162.744,18.9h-4.508a1.225,1.225,0,0,0,.586-.967V1.478a1.222,1.222,0,0,0-.586-.968h3.948l5.857,10.11a18.8,18.8,0,0,1,1.554,3.566,21.477,21.477,0,0,1-.331-3.566V1.478a1.222,1.222,0,0,0-.586-.968h4.508a1.19,1.19,0,0,0-.561.968V17.954a1.089,1.089,0,0,0,.561.942h-3.922L163.126,8.1A11.729,11.729,0,0,1,161.9,5.2c.178,1.63.28,2.7.28,3.159v9.6A1.087,1.087,0,0,0,162.744,18.9Z" fill="#fff"/><path d="M178.283,17.929V3.565h-2.852a1.189,1.189,0,0,0-.943.586V.51h10.977V4.151a1.227,1.227,0,0,0-.968-.586h-2.852V17.954a1.118,1.118,0,0,0,.585.942H177.7A1.225,1.225,0,0,0,178.283,17.929Z" fill="#fff"/><path d="M197.437,17.827a2.206,2.206,0,0,0-.1-.713l-.815-2.241h-7.08l-.739,2.241a2.51,2.51,0,0,0-.127.739,2.826,2.826,0,0,0,.255,1.043h-4.737a4.424,4.424,0,0,0,.917-1.5l5.908-15.612a1.883,1.883,0,0,0,.128-.713,5,5,0,0,0-.077-.559h3.9l6.113,16.884a4.675,4.675,0,0,0,.942,1.5h-4.737A2.833,2.833,0,0,0,197.437,17.827Zm-1.987-6.239-2.47-7.31-2.445,7.31Z" fill="#fff"/><path d="M207.092,18.9h-4.508a1.225,1.225,0,0,0,.586-.967V1.478a1.222,1.222,0,0,0-.586-.968h3.947l5.858,10.11a18.861,18.861,0,0,1,1.553,3.566,21.585,21.585,0,0,1-.331-3.566V1.478a1.222,1.222,0,0,0-.586-.968h4.508a1.189,1.189,0,0,0-.56.968V17.954a1.087,1.087,0,0,0,.56.942h-3.922L207.474,8.1a11.654,11.654,0,0,1-1.222-2.9c.178,1.63.279,2.7.279,3.159v9.6A1.089,1.089,0,0,0,207.092,18.9Z" fill="#fff"/><path d="M229.405,19.38c-5.883,0-9.83-4.176-9.83-9.55a10.034,10.034,0,0,1,2.19-6.341,8.98,8.98,0,0,1,7-3.413c1.425,0,2.5.2,3.158.2a2.917,2.917,0,0,0,1.2-.28V4.966A5.906,5.906,0,0,0,229.1,3.26a6.252,6.252,0,0,0-6.189,6.367,6.35,6.35,0,0,0,6.6,6.392,6.715,6.715,0,0,0,2.954-.84V11.23h-4.3a1.309,1.309,0,0,0-.993.586V7.386a1.3,1.3,0,0,0,.993.611H235.8v8a1.719,1.719,0,0,0,.483.917A11.849,11.849,0,0,1,229.405,19.38Z" fill="#fff"/><path d="M246.6,17.929V1.478a1.225,1.225,0,0,0-.586-.968h10.62V4.126a1.187,1.187,0,0,0-.943-.586h-5.73V8.2h3.642a1.114,1.114,0,0,0,.942-.586v4.2a1.225,1.225,0,0,0-.968-.586h-3.616v6.7a1.225,1.225,0,0,0,.586.967h-4.533A1.227,1.227,0,0,0,246.6,17.929Z" fill="#fff"/><path d="M260.585,2.853a9.5,9.5,0,0,1,13.523,0,9.778,9.778,0,0,1,0,13.7,9.5,9.5,0,0,1-6.774,2.826,9.6,9.6,0,0,1-6.749-2.826,9.712,9.712,0,0,1-2.826-6.876A9.53,9.53,0,0,1,260.585,2.853Zm6.774,13.216A6.237,6.237,0,0,0,273.472,9.7a6.119,6.119,0,1,0-12.225,0A6.253,6.253,0,0,0,267.359,16.069Z" fill="#fff"/><path d="M281.753,17.929V3.565H278.9a1.188,1.188,0,0,0-.942.586V.51h10.977V4.151a1.23,1.23,0,0,0-.968-.586h-2.853V17.954a1.117,1.117,0,0,0,.586.942h-4.533A1.225,1.225,0,0,0,281.753,17.929Z" fill="#fff"/><path d="M292.782,2.853a9.5,9.5,0,0,1,13.524,0,9.78,9.78,0,0,1,0,13.7,9.5,9.5,0,0,1-13.524,0,9.716,9.716,0,0,1-2.826-6.876A9.53,9.53,0,0,1,292.782,2.853Zm6.775,13.216A6.236,6.236,0,0,0,305.669,9.7a6.119,6.119,0,1,0-12.225,0A6.254,6.254,0,0,0,299.557,16.069Z" fill="#fff"/><path d="M314.816,9.678l-.993,7.512a2.671,2.671,0,0,0-.025.433,2.142,2.142,0,0,0,.407,1.273h-4.3a3.24,3.24,0,0,0,.612-1.451l2.266-15.764V1.528A1.749,1.749,0,0,0,312.4.51h3.694l2.851,8.276c.1.306.434,1.4.892,3.311.382-1.477.738-2.573.993-3.336L323.6.51H327.3a1.747,1.747,0,0,0-.382,1.018v.153l2.267,15.764a3.237,3.237,0,0,0,.611,1.451h-4.278a2.149,2.149,0,0,0,.407-1.273,2.671,2.671,0,0,0-.025-.433L324.876,9.7q-.115-.916-.306-3.591c-.459,1.885-.815,2.954-.942,3.311l-3.795,9.957L315.962,9.5a17.432,17.432,0,0,1-.84-3.387C315.045,7.462,314.943,8.659,314.816,9.678Z" fill="#fff"/><path d="M330.636.51h4.533a1.161,1.161,0,0,0-.611.968V11.74c0,2.853.407,4.355,3.285,4.355a2.973,2.973,0,0,0,2.5-1.146,3.937,3.937,0,0,0,.534-2.393v-.917l-.025-10.161a1.129,1.129,0,0,0-.586-.968h4.508a1.177,1.177,0,0,0-.586,1.069V12.733c0,4.228-2.649,6.673-6.367,6.673-4.048,0-6.6-2.394-6.6-6.723V1.478A1.188,1.188,0,0,0,330.636.51Z" fill="#fff"/></g></g></svg>