<svg xmlns="http://www.w3.org/2000/svg" viewBox="0 0 1341.646 113.892"><g id="Layer_2" data-name="Layer 2"><g id="Layer_3" data-name="Layer 3"><path d="M12.422,51.492H0a3.338,3.338,0,0,0,1.6-2.637V4.024A3.239,3.239,0,0,0,0,1.388H12.422a3.24,3.24,0,0,0-1.6,2.636V21.166L22.831,5a2.819,2.819,0,0,0,.694-1.8,3.089,3.089,0,0,0-.763-1.8H36.78A21.663,21.663,0,0,0,33.935,4.3L18.251,24.774c7.218,1.6,12.63,6.316,16.378,14.158,2.845,5.9,2.567,10.825,5.413,12.56H27.411a11.414,11.414,0,0,0,.556-3.192c0-6.87-6.87-15.892-17.142-17.141v17.7A3.152,3.152,0,0,0,12.422,51.492Z" fill="#fff"/><path d="M42.61,1.388H54.963a3.336,3.336,0,0,0-1.6,2.636v44.9a3.044,3.044,0,0,0,1.6,2.567H42.61a3.338,3.338,0,0,0,1.6-2.637V4.024A3.338,3.338,0,0,0,42.61,1.388Z" fill="#fff"/><path d="M62.876,48.855V.763a6.546,6.546,0,0,0,3.262.971C67.872,1.734,70.856.9,75.3.9,85.014.9,90.7,6.593,90.7,15.822c0,5.9-2.429,9.716-7.426,11.867A18.11,18.11,0,0,1,95.423,40.527c.972,3.262.833,7.287,3.609,10.965H86.749A5.015,5.015,0,0,0,88.137,48.3c0-7.565-6.662-15.822-16.17-16.794V48.855a3.336,3.336,0,0,0,1.6,2.637H61.35A3.246,3.246,0,0,0,62.876,48.855Zm11.8-25.26a6.74,6.74,0,0,0,7.147-7.009,6.767,6.767,0,0,0-6.87-7.079,17.932,17.932,0,0,0-2.984.347V23.387C73.216,23.525,74.188,23.6,74.674,23.6Z" fill="#fff"/><path d="M102.087,1.388h12.352a3.335,3.335,0,0,0-1.595,2.636v44.9a3.043,3.043,0,0,0,1.595,2.567H102.087a3.338,3.338,0,0,0,1.6-2.637V4.024A3.338,3.338,0,0,0,102.087,1.388Z" fill="#fff"/><path d="M131.027,26.37,128.32,46.843a7.172,7.172,0,0,0-.069,1.179,5.856,5.856,0,0,0,1.11,3.47H117.634a8.837,8.837,0,0,0,1.665-3.956L125.476,4.58V4.163a4.78,4.78,0,0,0-1.041-2.775H134.5l7.773,22.553c.277.833,1.179,3.818,2.428,9.022,1.041-4.025,2.013-7.009,2.707-9.091l7.564-22.484h10.062a4.779,4.779,0,0,0-1.04,2.775V4.58l6.176,42.956a8.828,8.828,0,0,0,1.666,3.956H160.174a5.849,5.849,0,0,0,1.11-3.47,7.172,7.172,0,0,0-.069-1.179l-2.777-20.4q-.312-2.5-.832-9.784c-1.249,5.135-2.22,8.05-2.568,9.022L144.7,52.811,134.15,25.885a47.675,47.675,0,0,1-2.29-9.23C131.651,20.333,131.374,23.6,131.027,26.37Z" fill="#fff"/><path d="M186.9,51.492H174.473a3.337,3.337,0,0,0,1.595-2.637V4.024a3.238,3.238,0,0,0-1.595-2.636H186.9a3.24,3.24,0,0,0-1.6,2.636V21.166L197.3,5a2.819,2.819,0,0,0,.694-1.8,3.084,3.084,0,0,0-.764-1.8h14.019A21.68,21.68,0,0,0,208.407,4.3L192.724,24.774c7.217,1.6,12.63,6.316,16.378,14.158,2.844,5.9,2.567,10.825,5.413,12.56H201.884a11.447,11.447,0,0,0,.555-3.192c0-6.87-6.87-15.892-17.141-17.141v17.7A3.152,3.152,0,0,0,186.9,51.492Z" fill="#fff"/><path d="M247.132,48.577a5.987,5.987,0,0,0-.278-1.942l-2.22-6.108H225.342l-2.013,6.108a6.81,6.81,0,0,0-.347,2.011,7.743,7.743,0,0,0,.694,2.846H210.769a12.075,12.075,0,0,0,2.5-4.095l16.1-42.54a5.1,5.1,0,0,0,.348-1.943,13.174,13.174,0,0,0-.209-1.526h10.618L256.778,47.4a12.708,12.708,0,0,0,2.568,4.095H246.438A7.76,7.76,0,0,0,247.132,48.577Zm-5.412-17-6.733-19.917-6.662,19.917Z" fill="#fff"/><path d="M273.436,51.492H261.152a3.336,3.336,0,0,0,1.6-2.637V4.024a3.336,3.336,0,0,0-1.6-2.636h10.756l15.962,27.55a51.534,51.534,0,0,1,4.233,9.715,58.761,58.761,0,0,1-.9-9.715V4.024a3.335,3.335,0,0,0-1.6-2.636h12.284a3.247,3.247,0,0,0-1.527,2.636v44.9a2.967,2.967,0,0,0,1.527,2.567H291.2L274.477,22.067a31.774,31.774,0,0,1-3.331-7.911c.485,4.442.762,7.357.762,8.606V48.925A2.968,2.968,0,0,0,273.436,51.492Z" fill="#fff"/><path d="M390.117,48.855V4.024a3.336,3.336,0,0,0-1.6-2.636H417.46v9.854a3.23,3.23,0,0,0-2.568-1.6H399.277v12.7H409.2a3.049,3.049,0,0,0,2.569-1.6V32.2a3.339,3.339,0,0,0-2.638-1.6h-9.855V48.855a3.338,3.338,0,0,0,1.6,2.637H388.521A3.336,3.336,0,0,0,390.117,48.855Z" fill="#fff"/><path d="M428.217,7.772a25.886,25.886,0,0,1,36.849,0,26.641,26.641,0,0,1,0,37.335,25.884,25.884,0,0,1-36.849,0,26.457,26.457,0,0,1-7.7-18.737A25.973,25.973,0,0,1,428.217,7.772Zm18.46,36.017c9.091,0,16.655-7.634,16.655-17.35,0-9.645-7.426-17.418-16.655-17.418s-16.656,7.912-16.656,17.418C430.021,36.086,437.586,43.789,446.677,43.789Z" fill="#fff"/><path d="M485.889,48.855V9.715h-7.773a3.232,3.232,0,0,0-2.568,1.6V1.388h29.91v9.924a3.338,3.338,0,0,0-2.637-1.6h-7.772v39.21a3.044,3.044,0,0,0,1.6,2.567H484.292A3.338,3.338,0,0,0,485.889,48.855Z" fill="#fff"/><path d="M515.938,7.772a25.887,25.887,0,0,1,36.85,0,26.641,26.641,0,0,1,0,37.335,25.885,25.885,0,0,1-36.85,0,26.461,26.461,0,0,1-7.7-18.737A25.973,25.973,0,0,1,515.938,7.772ZM534.4,43.789c9.091,0,16.656-7.634,16.656-17.35,0-9.645-7.426-17.418-16.656-17.418s-16.655,7.912-16.655,17.418C517.743,36.086,525.308,43.789,534.4,43.789Z" fill="#fff"/><path d="M668.776,51.492H656.493a3.336,3.336,0,0,0,1.6-2.637V27L643.654,4.511A23.3,23.3,0,0,0,641.5,1.388h12.769a3.824,3.824,0,0,0-.833,1.943A3.389,3.389,0,0,0,654,5.065L662.669,17.9l8.675-12.839A3.18,3.18,0,0,0,671.9,3.4a3.793,3.793,0,0,0-.833-2.012h12.769a19.459,19.459,0,0,0-2.151,3.123L667.249,27v21.93A2.967,2.967,0,0,0,668.776,51.492Z" fill="#fff"/><path d="M712.775,48.577a5.987,5.987,0,0,0-.277-1.942l-2.221-6.108H690.985l-2.012,6.108a6.81,6.81,0,0,0-.347,2.011,7.741,7.741,0,0,0,.693,2.846H676.412a12.06,12.06,0,0,0,2.5-4.095l16.1-42.54a5.1,5.1,0,0,0,.347-1.943,13.161,13.161,0,0,0-.208-1.526h10.618L722.422,47.4a12.722,12.722,0,0,0,2.567,4.095H712.082A7.758,7.758,0,0,0,712.775,48.577Zm-5.413-17-6.731-19.917-6.662,19.917Z" fill="#fff"/><path d="M739.079,51.492H726.8a3.336,3.336,0,0,0,1.6-2.637V4.024a3.336,3.336,0,0,0-1.6-2.636h10.756l15.962,27.55a51.6,51.6,0,0,1,4.233,9.715,58.653,58.653,0,0,1-.9-9.715V4.024a3.338,3.338,0,0,0-1.6-2.636h12.283a3.246,3.246,0,0,0-1.526,2.636v44.9a2.965,2.965,0,0,0,1.526,2.567H756.845L740.12,22.067a31.811,31.811,0,0,1-3.331-7.911c.485,4.442.763,7.357.763,8.606V48.925A2.967,2.967,0,0,0,739.079,51.492Z" fill="#fff"/><path d="M799.872,52.811c-16.03,0-26.787-11.381-26.787-26.024a27.341,27.341,0,0,1,5.969-17.28,24.463,24.463,0,0,1,19.084-9.3c3.885,0,6.8.555,8.605.555A8,8,0,0,0,810,0V13.532C806.465,10.409,803,8.883,799.04,8.883a17.036,17.036,0,0,0-16.864,17.348c0,9.786,7.564,17.419,17.974,17.419a18.289,18.289,0,0,0,8.05-2.29V30.6H796.472a3.553,3.553,0,0,0-2.706,1.6V20.125a3.54,3.54,0,0,0,2.706,1.665h20.819V43.581a4.689,4.689,0,0,0,1.318,2.5C812.086,50.521,806.4,52.811,799.872,52.811Z" fill="#fff"/><path d="M911.835,48.855V9.715h-7.773a3.232,3.232,0,0,0-2.568,1.6V1.388H931.4v9.924a3.336,3.336,0,0,0-2.636-1.6H921v39.21a3.044,3.044,0,0,0,1.6,2.567H910.238A3.338,3.338,0,0,0,911.835,48.855Z" fill="#fff"/><path d="M935.223,1.388h12.352a3.336,3.336,0,0,0-1.6,2.636v44.9a3.044,3.044,0,0,0,1.6,2.567H935.223a3.336,3.336,0,0,0,1.6-2.637V4.024A3.336,3.336,0,0,0,935.223,1.388Z" fill="#fff"/><path d="M955.557,48.855V.208a7.678,7.678,0,0,0,3.608,1.318c2.082,0,5.413-1.249,10.132-1.249,14.782,0,25.955,11.173,25.955,26.232,0,14.643-10.271,24.983-28.8,24.983H953.961A3.44,3.44,0,0,0,955.557,48.855Zm9.16-6.038c.486,0,.971.07,1.458.07,12,0,19.361-7.565,19.361-17.072C985.536,16.1,977.9,9.3,968.6,9.3c-1.111,0-2.429.069-3.887.208Z" fill="#fff"/><path d="M1031.132,48.577a5.987,5.987,0,0,0-.278-1.942l-2.22-6.108h-19.292l-2.013,6.108a6.81,6.81,0,0,0-.347,2.011,7.743,7.743,0,0,0,.694,2.846H994.769a12.075,12.075,0,0,0,2.5-4.095l16.1-42.54a5.1,5.1,0,0,0,.348-1.943,13.174,13.174,0,0,0-.209-1.526h10.618L1040.778,47.4a12.708,12.708,0,0,0,2.568,4.095h-12.908A7.76,7.76,0,0,0,1031.132,48.577Zm-5.412-17-6.733-19.917-6.662,19.917Z" fill="#fff"/><path d="M1057.574,51.492h-12.422a3.338,3.338,0,0,0,1.6-2.637V4.024a3.239,3.239,0,0,0-1.6-2.636h12.422a3.239,3.239,0,0,0-1.6,2.636V21.166l12-16.17a2.815,2.815,0,0,0,.7-1.8,3.091,3.091,0,0,0-.764-1.8h14.019a21.68,21.68,0,0,0-2.846,2.914L1063.4,24.774c7.218,1.6,12.63,6.316,16.378,14.158,2.845,5.9,2.568,10.825,5.413,12.56h-12.631a11.414,11.414,0,0,0,.556-3.192c0-6.87-6.87-15.892-17.141-17.141v17.7A3.151,3.151,0,0,0,1057.574,51.492Z" fill="#fff"/><path d="M1199.723,48.577a5.987,5.987,0,0,0-.278-1.942l-2.22-6.108h-19.292l-2.013,6.108a6.81,6.81,0,0,0-.347,2.011,7.743,7.743,0,0,0,.694,2.846h-12.908a12.044,12.044,0,0,0,2.5-4.095l16.1-42.54a5.1,5.1,0,0,0,.348-1.943,13.382,13.382,0,0,0-.208-1.526h10.617L1209.369,47.4a12.708,12.708,0,0,0,2.568,4.095h-12.908A7.76,7.76,0,0,0,1199.723,48.577Zm-5.413-17-6.732-19.917-6.662,19.917Z" fill="#fff"/><path d="M1226.166,51.492h-12.422a3.338,3.338,0,0,0,1.6-2.637V4.024a3.239,3.239,0,0,0-1.6-2.636h12.422a3.24,3.24,0,0,0-1.6,2.636V21.166L1236.575,5a2.815,2.815,0,0,0,.695-1.8,3.091,3.091,0,0,0-.764-1.8h14.018a21.663,21.663,0,0,0-2.845,2.914l-15.684,20.472c7.218,1.6,12.63,6.316,16.378,14.158,2.845,5.9,2.567,10.825,5.413,12.56h-12.631a11.414,11.414,0,0,0,.556-3.192c0-6.87-6.87-15.892-17.142-17.141v17.7A3.152,3.152,0,0,0,1226.166,51.492Z" fill="#fff"/><path d="M1286.4,48.577a5.987,5.987,0,0,0-.277-1.942l-2.221-6.108h-19.292l-2.012,6.108a6.81,6.81,0,0,0-.347,2.011,7.741,7.741,0,0,0,.693,2.846H1250.04a12.06,12.06,0,0,0,2.5-4.095l16.1-42.54a5.1,5.1,0,0,0,.347-1.943,12.961,12.961,0,0,0-.209-1.526H1279.4L1296.05,47.4a12.705,12.705,0,0,0,2.567,4.095H1285.71A7.758,7.758,0,0,0,1286.4,48.577Zm-5.412-17-6.732-19.917L1267.6,31.575Z" fill="#fff"/><path d="M1312.707,51.492h-12.283a3.336,3.336,0,0,0,1.6-2.637V4.024a3.336,3.336,0,0,0-1.6-2.636h10.756l15.962,27.55a51.536,51.536,0,0,1,4.232,9.715,58.75,58.75,0,0,1-.9-9.715V4.024a3.338,3.338,0,0,0-1.6-2.636h12.283a3.246,3.246,0,0,0-1.526,2.636v44.9a2.965,2.965,0,0,0,1.526,2.567h-10.686l-16.725-29.425a31.811,31.811,0,0,1-3.331-7.911c.485,4.442.763,7.357.763,8.606V48.925A2.967,2.967,0,0,0,1312.707,51.492Z" fill="#fff"/><path d="M1.665,109.867V61.5a8.335,8.335,0,0,0,3.192.833c1.527,0,4.65-.764,9.369-.764,11.312,0,17.905,6.524,17.905,17.35,0,10.2-7.079,17.21-17,17.21a13.965,13.965,0,0,1-4.372-.972v14.713a3.158,3.158,0,0,0,1.527,2.637H.069A3.241,3.241,0,0,0,1.665,109.867ZM14.781,87.382a8.547,8.547,0,0,0,8.675-8.674c0-5.344-3.192-8.953-7.842-8.953a16.807,16.807,0,0,0-4.858.694V86.48A10.577,10.577,0,0,0,14.781,87.382Z" fill="#fff"/><path d="M48.579,91.615v12.631H64.193a3.232,3.232,0,0,0,2.569-1.6V112.5H37.754a3.338,3.338,0,0,0,1.6-2.637V65.036a3.338,3.338,0,0,0-1.6-2.637H66.762v9.855a3.232,3.232,0,0,0-2.569-1.6H48.579v12.7h9.785A3.152,3.152,0,0,0,61,81.761V93.212a3.341,3.341,0,0,0-2.638-1.6Z" fill="#fff"/><path d="M73.771,109.867V61.774a6.553,6.553,0,0,0,3.262.972c1.736,0,4.719-.833,9.16-.833,9.716,0,15.407,5.691,15.407,14.921,0,5.9-2.429,9.716-7.426,11.867a18.107,18.107,0,0,1,12.144,12.838c.972,3.262.833,7.287,3.61,10.965H97.644a5.01,5.01,0,0,0,1.388-3.192c0-7.565-6.662-15.823-16.17-16.794v17.349a3.339,3.339,0,0,0,1.6,2.637H72.245A3.247,3.247,0,0,0,73.771,109.867Zm11.8-25.261a7.045,7.045,0,0,0,.278-14.087,17.848,17.848,0,0,0-2.985.347V84.4C84.111,84.537,85.083,84.606,85.569,84.606Z" fill="#fff"/><path d="M124.711,112.5H112.428a3.337,3.337,0,0,0,1.595-2.637V65.036a3.337,3.337,0,0,0-1.595-2.637h10.756L139.146,89.95a51.536,51.536,0,0,1,4.232,9.715,58.759,58.759,0,0,1-.9-9.715V65.036a3.339,3.339,0,0,0-1.6-2.637h12.283a3.247,3.247,0,0,0-1.526,2.637v44.9a2.965,2.965,0,0,0,1.526,2.567H142.477L125.752,83.079a31.811,31.811,0,0,1-3.331-7.911c.485,4.441.763,7.356.763,8.6v26.164A2.967,2.967,0,0,0,124.711,112.5Z" fill="#fff"/><path d="M191.126,109.589a6,6,0,0,0-.277-1.943l-2.221-6.107H169.336l-2.013,6.107a6.82,6.82,0,0,0-.346,2.012,7.741,7.741,0,0,0,.693,2.846H154.763a12.075,12.075,0,0,0,2.5-4.095l16.1-42.54a5.106,5.106,0,0,0,.348-1.943A13.19,13.19,0,0,0,173.5,62.4h10.618l16.655,46.01a12.708,12.708,0,0,0,2.568,4.095H190.433A7.758,7.758,0,0,0,191.126,109.589Zm-5.412-17L178.981,72.67l-6.662,19.917Z" fill="#fff"/><path d="M235.334,65.036a3.339,3.339,0,0,0-1.6-2.637h12.284a3.246,3.246,0,0,0-1.527,2.637v44.9a2.964,2.964,0,0,0,1.527,2.567H233.737a3.242,3.242,0,0,0,1.6-2.637V91.615H215.9v18.322a2.968,2.968,0,0,0,1.528,2.567H205.146a3.335,3.335,0,0,0,1.6-2.637V65.036a3.335,3.335,0,0,0-1.6-2.637H217.43a3.25,3.25,0,0,0-1.528,2.637V83.357h19.432Z" fill="#fff"/><path d="M323.614,112.5H311.192a3.338,3.338,0,0,0,1.6-2.637V65.036a3.242,3.242,0,0,0-1.6-2.637h12.422a3.241,3.241,0,0,0-1.6,2.637V82.178l12.005-16.17a2.815,2.815,0,0,0,.695-1.8,3.1,3.1,0,0,0-.764-1.8h14.019a21.739,21.739,0,0,0-2.846,2.914L329.443,85.786c7.218,1.6,12.63,6.316,16.378,14.157,2.845,5.9,2.568,10.826,5.413,12.561H338.6a11.447,11.447,0,0,0,.555-3.192c0-6.871-6.87-15.892-17.141-17.141v17.7A3.151,3.151,0,0,0,323.614,112.5Z" fill="#fff"/><path d="M383.852,109.589a6,6,0,0,0-.278-1.943l-2.22-6.107H362.062l-2.013,6.107a6.822,6.822,0,0,0-.347,2.012,7.723,7.723,0,0,0,.694,2.846H347.488a12.044,12.044,0,0,0,2.5-4.095l16.1-42.54a5.106,5.106,0,0,0,.348-1.943,13.4,13.4,0,0,0-.208-1.527h10.617l16.655,46.01a12.722,12.722,0,0,0,2.567,4.095H383.158A7.76,7.76,0,0,0,383.852,109.589Zm-5.414-17L371.707,72.67l-6.662,19.917Z" fill="#fff"/><path d="M408.073,87.382l-2.707,20.472a7.19,7.19,0,0,0-.069,1.18,5.856,5.856,0,0,0,1.11,3.47H394.68a8.837,8.837,0,0,0,1.665-3.956l6.176-42.956v-.417A4.769,4.769,0,0,0,401.48,62.4h10.063l7.772,22.554c.278.833,1.18,3.818,2.429,9.022,1.041-4.025,2.013-7.009,2.707-9.091L432.015,62.4h10.062a4.783,4.783,0,0,0-1.041,2.776v.417l6.177,42.956a8.828,8.828,0,0,0,1.666,3.956H437.22a5.849,5.849,0,0,0,1.11-3.47,7.19,7.19,0,0,0-.069-1.18l-2.776-20.4q-.313-2.5-.833-9.784c-1.249,5.135-2.22,8.05-2.568,9.021l-10.34,27.134L411.2,86.9a47.661,47.661,0,0,1-2.29-9.229C408.7,81.345,408.42,84.606,408.073,87.382Z" fill="#fff"/><path d="M451.171,62.4h12.352a3.168,3.168,0,0,0-1.665,2.637V93c0,7.772,1.111,11.867,8.953,11.867a8.1,8.1,0,0,0,6.8-3.123c1.319-1.873,1.457-4.024,1.457-6.523v-2.5L479,65.036a3.082,3.082,0,0,0-1.6-2.637h12.284a3.209,3.209,0,0,0-1.6,2.914v30.4c0,11.519-7.218,18.182-17.35,18.182-11.034,0-17.973-6.524-17.973-18.321V65.036A3.243,3.243,0,0,0,451.171,62.4Z" fill="#fff"/><path d="M584.7,65.036a3.338,3.338,0,0,0-1.6-2.637h12.283a3.249,3.249,0,0,0-1.527,2.637v44.9a2.967,2.967,0,0,0,1.527,2.567H583.1a3.241,3.241,0,0,0,1.6-2.637V91.615H565.266v18.322a2.967,2.967,0,0,0,1.527,2.567H554.51a3.337,3.337,0,0,0,1.6-2.637V65.036a3.337,3.337,0,0,0-1.6-2.637h12.283a3.249,3.249,0,0,0-1.527,2.637V83.357H584.7Z" fill="#fff"/><path d="M633.208,109.589a6,6,0,0,0-.277-1.943l-2.221-6.107H611.418l-2.013,6.107a6.82,6.82,0,0,0-.346,2.012,7.741,7.741,0,0,0,.693,2.846H596.845a12.075,12.075,0,0,0,2.5-4.095l16.1-42.54a5.106,5.106,0,0,0,.348-1.943,13.19,13.19,0,0,0-.209-1.527H626.2l16.655,46.01a12.725,12.725,0,0,0,2.568,4.095H632.515A7.758,7.758,0,0,0,633.208,109.589Zm-5.412-17L621.063,72.67,614.4,92.587Z" fill="#fff"/><path d="M648.894,109.867V61.5a8.335,8.335,0,0,0,3.192.833c1.526,0,4.649-.764,9.368-.764,11.313,0,17.905,6.524,17.905,17.35,0,10.2-7.079,17.21-17,17.21a13.97,13.97,0,0,1-4.372-.972v14.713a3.159,3.159,0,0,0,1.528,2.637H647.3A3.241,3.241,0,0,0,648.894,109.867ZM662.01,87.382a8.547,8.547,0,0,0,8.675-8.674c0-5.344-3.193-8.953-7.842-8.953a16.814,16.814,0,0,0-4.859.694V86.48A10.578,10.578,0,0,0,662.01,87.382Z" fill="#fff"/><path d="M684.635,62.4h12.352a3.168,3.168,0,0,0-1.665,2.637V93c0,7.772,1.111,11.867,8.952,11.867a8.1,8.1,0,0,0,6.8-3.123c1.319-1.873,1.457-4.024,1.457-6.523v-2.5l-.069-27.69a3.082,3.082,0,0,0-1.6-2.637H723.15a3.208,3.208,0,0,0-1.6,2.914v30.4c0,11.519-7.218,18.182-17.35,18.182-11.034,0-17.974-6.524-17.974-18.321V65.036A3.242,3.242,0,0,0,684.635,62.4Z" fill="#fff"/><path d="M728.079,99.11c2.29,3.817,5.344,5.76,9.23,5.76a7.815,7.815,0,0,0,8.12-7.842c0-4.718-3.61-7.216-9.161-10.826-5.274-3.4-7.773-7.355-7.773-12.907A11.868,11.868,0,0,1,740.5,61.15c2.221,0,4.164.694,5.9.694a7.011,7.011,0,0,0,2.845-.763V74.058c-2.29-3.192-4.58-4.788-7.217-4.788a4.1,4.1,0,0,0-4.441,4.233c0,3.054,2.983,4.58,7.633,7.772,6.176,4.234,9.092,8.606,9.092,15.753,0,9.855-6.8,16.656-16.656,16.656-2.776,0-5.2-.9-7.079-.9a6.513,6.513,0,0,0-2.5.695Z" fill="#fff"/><path d="M820.243,109.867V61.22a7.682,7.682,0,0,0,3.609,1.318c2.082,0,5.413-1.249,10.131-1.249,14.783,0,25.955,11.173,25.955,26.232,0,14.643-10.27,24.983-28.8,24.983H818.647A3.441,3.441,0,0,0,820.243,109.867Zm9.16-6.038c.487,0,.972.069,1.458.069,12,0,19.362-7.564,19.362-17.071,0-9.716-7.634-16.516-16.933-16.516-1.11,0-2.429.069-3.887.208Z" fill="#fff"/><path d="M895.818,109.589a6,6,0,0,0-.277-1.943l-2.221-6.107H874.028l-2.012,6.107a6.822,6.822,0,0,0-.347,2.012,7.741,7.741,0,0,0,.693,2.846H859.455a12.06,12.06,0,0,0,2.5-4.095l16.1-42.54a5.107,5.107,0,0,0,.347-1.943,13.177,13.177,0,0,0-.208-1.527H888.81l16.655,46.01a12.722,12.722,0,0,0,2.567,4.095H895.125A7.758,7.758,0,0,0,895.818,109.589Zm-5.413-17L883.674,72.67l-6.662,19.917Z" fill="#fff"/><path d="M911.365,109.867V61.774a6.553,6.553,0,0,0,3.262.972c1.735,0,4.719-.833,9.16-.833,9.716,0,15.406,5.691,15.406,14.921,0,5.9-2.428,9.716-7.425,11.867a18.109,18.109,0,0,1,12.144,12.838c.972,3.262.833,7.287,3.609,10.965H935.237a5.006,5.006,0,0,0,1.389-3.192c0-7.565-6.662-15.823-16.17-16.794v17.349a3.339,3.339,0,0,0,1.6,2.637H909.839A3.247,3.247,0,0,0,911.365,109.867Zm11.8-25.261a7.045,7.045,0,0,0,.277-14.087,17.837,17.837,0,0,0-2.984.347V84.4C921.705,84.537,922.677,84.606,923.163,84.606Z" fill="#fff"/><path d="M950.576,62.4h12.353a3.338,3.338,0,0,0-1.6,2.637v44.9a3.044,3.044,0,0,0,1.6,2.567H950.576a3.339,3.339,0,0,0,1.6-2.637V65.036A3.339,3.339,0,0,0,950.576,62.4Z" fill="#fff"/><path d="M1054.885,113.822c-16.031,0-26.787-11.381-26.787-26.023a27.346,27.346,0,0,1,5.968-17.28,24.463,24.463,0,0,1,19.084-9.3c3.886,0,6.8.554,8.605.554a8,8,0,0,0,3.262-.762V74.544c-3.539-3.123-7.009-4.649-10.964-4.649a17.036,17.036,0,0,0-16.865,17.348c0,9.785,7.565,17.419,17.975,17.419a18.289,18.289,0,0,0,8.05-2.29V91.615h-11.729a3.556,3.556,0,0,0-2.706,1.6V81.137a3.545,3.545,0,0,0,2.706,1.665h20.82v21.791a4.685,4.685,0,0,0,1.318,2.5C1067.1,111.532,1061.408,113.822,1054.885,113.822Z" fill="#fff"/><path d="M1110.335,109.589a6,6,0,0,0-.277-1.943l-2.221-6.107h-19.292l-2.013,6.107a6.82,6.82,0,0,0-.346,2.012,7.741,7.741,0,0,0,.693,2.846h-12.907a12.075,12.075,0,0,0,2.5-4.095l16.1-42.54a5.106,5.106,0,0,0,.348-1.943,13.19,13.19,0,0,0-.209-1.527h10.618l16.655,46.01a12.708,12.708,0,0,0,2.568,4.095h-12.907A7.758,7.758,0,0,0,1110.335,109.589Zm-5.412-17L1098.19,72.67l-6.662,19.917Z" fill="#fff"/><path d="M1124.355,62.4h12.422a3.338,3.338,0,0,0-1.6,2.637v39.21h14.365a3.229,3.229,0,0,0,2.568-1.6V112.5h-27.759a3.338,3.338,0,0,0,1.6-2.637V65.036A3.338,3.338,0,0,0,1124.355,62.4Z" fill="#fff"/><path d="M1166.688,91.615v12.631H1182.3a3.232,3.232,0,0,0,2.568-1.6V112.5h-29.008a3.338,3.338,0,0,0,1.6-2.637V65.036a3.338,3.338,0,0,0-1.6-2.637h29.008v9.855a3.232,3.232,0,0,0-2.568-1.6h-15.615v12.7h9.786a3.151,3.151,0,0,0,2.637-1.6V93.212a3.339,3.339,0,0,0-2.637-1.6Z" fill="#fff"/><path d="M1191.882,109.867V61.774a6.547,6.547,0,0,0,3.262.972c1.734,0,4.718-.833,9.16-.833,9.716,0,15.406,5.691,15.406,14.921,0,5.9-2.429,9.716-7.426,11.867a18.108,18.108,0,0,1,12.145,12.838c.971,3.262.833,7.287,3.609,10.965h-12.283a5.015,5.015,0,0,0,1.388-3.192c0-7.565-6.663-15.823-16.17-16.794v17.349a3.338,3.338,0,0,0,1.6,2.637h-12.214A3.249,3.249,0,0,0,1191.882,109.867Zm11.8-25.261a7.045,7.045,0,0,0,.277-14.087,17.826,17.826,0,0,0-2.984.347V84.4C1202.222,84.537,1203.193,84.606,1203.68,84.606Z" fill="#fff"/><path d="M1231.093,62.4h12.352a3.337,3.337,0,0,0-1.6,2.637v44.9a3.043,3.043,0,0,0,1.6,2.567h-12.352a3.338,3.338,0,0,0,1.6-2.637V65.036A3.338,3.338,0,0,0,1231.093,62.4Z" fill="#fff"/><path d="M1260.033,87.382l-2.707,20.472a7.19,7.19,0,0,0-.069,1.18,5.856,5.856,0,0,0,1.11,3.47H1246.64a8.837,8.837,0,0,0,1.665-3.956l6.176-42.956v-.417a4.776,4.776,0,0,0-1.041-2.776H1263.5l7.772,22.554c.278.833,1.18,3.818,2.429,9.022,1.041-4.025,2.013-7.009,2.707-9.091l7.564-22.485h10.062a4.781,4.781,0,0,0-1.04,2.776v.417l6.176,42.956a8.828,8.828,0,0,0,1.666,3.956H1289.18a5.849,5.849,0,0,0,1.11-3.47,7.19,7.19,0,0,0-.069-1.18l-2.777-20.4q-.312-2.5-.832-9.784c-1.249,5.135-2.22,8.05-2.568,9.021l-10.34,27.134L1263.156,86.9a47.661,47.661,0,0,1-2.29-9.229C1260.657,81.345,1260.38,84.606,1260.033,87.382Z" fill="#fff"/><path d="M1303.131,62.4h12.352a3.168,3.168,0,0,0-1.665,2.637V93c0,7.772,1.111,11.867,8.953,11.867a8.1,8.1,0,0,0,6.8-3.123c1.319-1.873,1.457-4.024,1.457-6.523v-2.5l-.069-27.69a3.082,3.082,0,0,0-1.6-2.637h12.283a3.208,3.208,0,0,0-1.6,2.914v30.4c0,11.519-7.218,18.182-17.35,18.182-11.034,0-17.973-6.524-17.973-18.321V65.036A3.243,3.243,0,0,0,1303.131,62.4Z" fill="#fff"/></g></g></svg>