<svg xmlns="http://www.w3.org/2000/svg" viewBox="0 0 92.701 109.548"><g id="Layer_2" data-name="Layer 2"><g id="Layer_2-2" data-name="Layer 2"><path d="M.13,67.5a61.092,61.092,0,0,1,0-7.959c.741-9.348,6.014-21.668,13-28.273,4.682-4.425,9.952-8.429,16.021-10.842a9.151,9.151,0,0,1,3.3-.951V6.847c-.881.039-1.23,1.147-2.083,1.342-.922.212-.962-.417-1.74-.532l.117-1.368L35.73.114,38.327,0l.411.412c-.164,4.6.267,9.406.019,13.987a13.623,13.623,0,0,0-.282,2.468c.146,1.938,2.73.508,3.965.4,30.1-2.679,54.172,24.443,49.731,53.94-.414,2.743-1.527,4.572-1.917,7.41-.448,3.257-6.816,13.285-9.322,15.633-1.518,1.422-3.036,3.029-4.657,4.391-4.419,3.713-13.48,8.736-19.028,9.751-12.594,2.3-23.176,1.432-34.482-4.982C10.338,96.357,1.249,81.614.13,67.5ZM32.452,33.329V23.312a27.9,27.9,0,0,0-7.5,3.33c-11.438,6.8-19.93,19.04-21,32.477A58.494,58.494,0,0,0,4.244,69,38.7,38.7,0,0,0,9.48,85.158L12.046,88.9c2.028-2.178,4.017-4.405,6.03-6.591,1.612-1.751,3.657-3.7,5.345-5.612a20.651,20.651,0,0,0,2.146-2.79c.228-.436.328-.887.514-1.334L25.75,62c-1.635-1.6-3.952-2.386-5.792-3.817-.292-.052-1.412.716-1.747.948-1.486,1.028-2.883,2.292-4.388,3.287-1.628,1.076-2.525,1.628-3-.809.094-.333,3.276-2.321,3.823-2.759,1.171-.937,2.375-2.347,3.567-3.287a28.461,28.461,0,0,1,3.968-2.569c2.406,1.431,5.246,2.425,7.633,3.838.772.458,2.42,1.472,2.6,2.331l.041,11.222-.589,1.606c-3.358,3.294-6.512,6.854-9.955,10.059-.227.211-2.265,1.465-1.788,1.913,2.881.138,5.367,1.82,7.933,2.892.886.37,2.535,1.121,3.4.917a9.13,9.13,0,0,0,1.685-1.056c.568-.526.462-1.38,1.632-1.1.442.348.4.332.279.822-.391,1.585-2.909,4.888-4.428,5.444-.136.05-1.258.333-1.327.333-.261,0-.431-.218-.594-.245-3.3-.539-4.9-2.132-7.75-3.21-1.6-.6-4.334-.737-5.761.286-.567.406-1.086,1.186-1.642,1.653-.1.324.236.479.408.678a43.525,43.525,0,0,0,19.773,12.846,40.364,40.364,0,0,0,27.015-.549A49.022,49.022,0,0,0,71.345,98.09a27.529,27.529,0,0,0,4.1-3.3c3.307-3.5,6.595-7.214,8.646-11.645a47.321,47.321,0,0,0,3.916-10.621c.316-1.6.149-2.881.314-4.35.061-.537.5-1.374.558-1.911a39.945,39.945,0,0,0-1.227-13.05c-.358-1.113-.643-2.267-1.012-3.377-.257-.773-1.147-1.879-1.291-2.549-.112-.525.072-1.137-.06-1.587-.076-.26-.78-.772-1.036-1.157-.983-1.479-2.533-6.084-3.863-6.833-.31-.175-.77-.077-.979-.391-.387-.58-.951-1.539-1.36-2.213-.518-.852-.235-.284-.962-.673-1.2-.641-1.462-2.876-2.861-3.375l-.528.2c-2.041-3.016-6.123-5.241-9.468-6.722a41.74,41.74,0,0,0-19.6-3.7c-.291.017-.519.265-.811.285-1.65.114-3.276-.2-4.914.291l-.419.4.26,12.472,2.64-1.625c.784.113,1.057.411,1.185,1.189-1.287,1.192-3.98,3.876-5.639,4.244-1.258.279-2.568-.971-3.8-1.077-.864.072-1.794,1.489-2.43,1.37a1.161,1.161,0,0,1-.967-1.471c.459-.954,1.477-1.591,2.03-2.357C31.872,34.415,32.437,33.4,32.452,33.329Z" fill="#fff"/><path d="M60.665,76.825l-1.641.963-1.771,1.23-2.6-2.329c.261-.749.4-.551.8-.822a54.547,54.547,0,0,0,5.187-4.143c-.006-1.634.092-3.287.03-4.921a71.326,71.326,0,0,1,0-10.692c.137-1.293-.2-1.919.681-3.159.924-1.3,2.763-2.141,3.967-3.161.81-.686,1.672-1.921,2.468-2.466.466-.32,3.3-1.207,3.561-.961l-3.811,7.03v.485c.925,1.349,1.874,2.7,2.855,4.008,1.311,1.746,2.844,3.415,4.1,5.22,2.242,3.214,4.048,6.855,6.706,9.747.848.922,1.857,1.582,2.733,2.461-.3.553-1.466,2.078-2.041,2.074-.592,0-1.243-.731-1.668-1.1-1.19.672-2.475.047-3.531-.015a41.68,41.68,0,0,0-5.478.011,25.94,25.94,0,0,0-3.541.019,3.187,3.187,0,0,0-.71.661V88.077l3.994-2.448.944.108.8,1.38-6.971,5.568c-.317-.28-.735-.154-1.055-.26-.771-.257-1.729-1.129-2.512-1.068-.521.042-1.561,1.359-2.209,1.637l-.946-.106c-1.535-1.652.721-2.105,1.252-3.156a12.949,12.949,0,0,0,.4-1.244Zm6.026-5.214c.933.165,1.688-.406,2.609-.279.777.107,1.979.5,2.727.559a15.785,15.785,0,0,0,2.994-.031c.248-.073.478-.49.709-.661-2.582-2.3-3.915-5.58-5.891-8.367-.556-.783-1.37-1.489-1.914-2.2-.448-.587-.6-1.605-1.507-1.92.13,2.562-.176,5.283-.006,7.826.076,1.125.7,3.046.559,4.119C66.923,71.012,66.614,71.218,66.691,71.611Z" fill="#fff"/><path d="M57.382,30.449c1.774.3,2.426,2.284,3.815,3.17.447,1.579-1.851,3.361-3.134,3.979a15.9,15.9,0,0,1-3.682-2.364,3.806,3.806,0,0,1,.006-1.06C55.381,32.945,56.931,32.038,57.382,30.449Z" fill="#fff"/><path d="M55.426,68.283l-7.641,5.929a3.374,3.374,0,0,1-3.654-.169c-1.719-.947-3.721-2.515-5.386-3.66-.936-.643-2-.958-2.423-2.238l-.011-24.089c1.172-1.623,3.127-2.417,4.629-3.595,1.057-.828,2.1-1.748,3.161-2.6.769-.612,1.069-1.421,2.222-1.632.761-.138,5.528,3.176,6.572,3.783.691.4,2.9,1.194,3.09,1.845.1,1.544-.05,3.1.018,4.646a166.814,166.814,0,0,1,0,17.279C55.91,65.387,56.375,66.91,55.426,68.283Zm-5.744.008.308-.926c.2-6.17-.3-12.533-.017-18.679a16.3,16.3,0,0,0,.289-3.289c-.252-1.994-1.629-2.526-3.016-3.564-.481-.361-.881-1.052-1.538-1.2-1.143-.262-1.814,1.117-2.82,1.37l-.309.927.032,22.485L47.4,69.683Z" fill="#fff"/></g></g></svg>