<svg xmlns="http://www.w3.org/2000/svg" viewBox="0 0 78.892 52.624"><g id="Layer_2" data-name="Layer 2"><g id="Layer_2-2" data-name="Layer 2"><path d="M27.346,18.541a1.817,1.817,0,0,0,.872-.031,4.051,4.051,0,0,0,2.039-1.155,3.837,3.837,0,0,0,.388-.6,1.187,1.187,0,0,0-.654-1.72,1.553,1.553,0,0,0-1.1.083,4.1,4.1,0,0,0-1.844,1.433,2.212,2.212,0,0,0-.342.645A1.006,1.006,0,0,0,27.346,18.541Zm.547-1.429a1.885,1.885,0,0,1,.4-.728,1.913,1.913,0,0,1,1.364-.669.76.76,0,0,1,.737.926,2.268,2.268,0,0,1-1.9,1.288A.6.6,0,0,1,27.893,17.112Z" fill="#fff"/><path d="M2.194,50.516A84.173,84.173,0,0,1,10.957,43.3a65.13,65.13,0,0,1,6.89-4.2,79.719,79.719,0,0,1,9.785-4.587,30.3,30.3,0,0,1,6.2-1.74,9.146,9.146,0,0,1,3.314.015,1.878,1.878,0,0,1,1.671,2.056,6.078,6.078,0,0,1-.545,2.3,23.54,23.54,0,0,1-2.132,3.983c-.125.2-.262.4-.408.617-.1.142-.2.289-.3.438-.223.319-.465.657-.718,1-.083.115-.169.231-.256.348-.013.02-.03.041-.046.062l-.217.292c-.207.279-.431.577-.665.884l-.041.054-.292.382-.074.094-.007.01c-.058.075-.114.149-.171.222l-.225.289-.123.16-.142.182-.368.471c-.264.337-.52.658-.759.958l-.2.259a.2.2,0,0,0-.021.026l-.109.137-.156.194c-.015.019-.026.034-.038.047l-.009.013-.009.01-.023.03c-.025.031-.051.062-.076.094l-.015.018-.123.154-.121.149-.014.018-.1.123-.023.027-.028.035c-.008.011-.017.02-.024.03l-.024.03c-.019.022-.038.045-.055.067l-.047.057c0,.005-.011.016-.019.025l-.049.06-.01.013-.007.008c.929-.6,2.894-1.935,3.974-2.7,3.628-2.57,7.231-5.315,11.015-8.392,4.476-3.642,8.025-6.728,11.165-9.71A136.49,136.49,0,0,0,72.486,9.988,89.051,89.051,0,0,0,78.835.1l.057-.1-.487.551c-1.593,1.8-4.557,5.157-6.418,6.983a73.487,73.487,0,0,1-9.244,7.8l-.433.3-.343.237-.3.2q-.369.249-.743.5l-.081.054c-.041.027-.083.054-.125.083l-.053.035c-.068.045-.138.089-.206.133-.109.073-.222.144-.333.215l-.12.078-.123.079-.106.067c-.21.134-.423.269-.636.4l-.172.107c-.365.227-.758.467-1.233.754l-.212.128c-.126.076-.252.15-.379.225l-.078.046-.12.072c-.13.077-.262.155-.4.231l-.023.014-.4.233-.422.243-.212.121-.077.044c-.063.038-.128.074-.193.11-.047.028-.095.055-.144.082a66.991,66.991,0,0,1-8.809,4.3,23.685,23.685,0,0,1-5.387,1.527,6.4,6.4,0,0,1-3.1-.2,2.4,2.4,0,0,1-1.673-2.164,4.053,4.053,0,0,1,.346-1.729,12.633,12.633,0,0,1,1.789-2.951,45.9,45.9,0,0,1,5.6-5.832A129.875,129.875,0,0,1,54.443,4.586l.41-.3.032-.023c-.784.316-2.058.858-2.808,1.2a114.141,114.141,0,0,0-12.719,6.885.88.88,0,0,1-.393.142c-.193.01-.388.022-.581.034-.165.01-.33.022-.5.034l-.537.043-.536.049c-.088.008-.178.016-.266.026-.213.022-.441.046-.67.075l-.132.015c-.1.012-.191.023-.286.036l-.513.07-.238.036-.028,0c-.127.018-.249.037-.37.057-.225.035-.467.077-.74.126-.078.013-.155.028-.234.043l-.03,0-.155.031c-.073.013-.145.028-.216.042-.1.021-.206.042-.31.065q-.224.046-.447.1c-.149.033-.3.068-.445.1l-.048.009a.259.259,0,0,1-.237-.069c-.009-.011-.02-.022-.028-.034a.322.322,0,0,1-.04-.061q-.926-1.649-1.852-3.295-1-1.775-2-3.551c-.174-.31-.338-.625-.512-.96L27,5.479c.105,2.332-.045,7.585-.148,9.422a.456.456,0,0,1-.3.449A46.921,46.921,0,0,0,22,17.811l0,.009.023.037.013.018c.07.111.176.262.3.425l.011.017,0,.007.01.014.029.039.055.075.036.05.077.1.012.016.01.013.051.07a.358.358,0,0,1,.023.031l.018.022.019.026.009.012.034.045.027.034.06.08c.009.01.019.023.028.035l.057.075.045.058.128.165s1.2,1.621,1.295,1.725l.084.093.005.006.232.256c.043.048.087.095.131.14l.081.087.025.027h0l.035.037.071.073c.023.025.047.049.07.072.047.048.094.1.14.14l.388.388.028.028c-.024.018-.471.516-.529.566l-.018.016-.08.069-.016.013-.044.038-.1.085a.326.326,0,0,0-.03.025l-.015.012-.091.083-.012.009c-.179.16-.368.33-.563.511l-.061.056-.3.285-.031.03c-.021.019-.037.032-.052.048l-.014.012c-.078.075-.153.146-.229.217a.3.3,0,0,1-.025.025c-.052.048-.112.105-.172.163l-.017.016-.04.039,0,0-.008.009-.252.242c-.038.036-.076.072-.112.108l0,0,0,0-.008.01-.049.046c-.025.024-.046.043-.066.064l-.392.384-.13.131c-.177.173-.353.349-.531.527-.086.084-.169.168-.253.253l-.015.015c-.27.272-.541.546-.81.821l-.185.191-.08.082-.262.269-.253.262-.254.263-.009.009-.208.217-.468.49c-.01.011-.023.024-.034.037s-.023.023-.033.034l-.015.016-.04.043-.093.1c-.032.033-.063.067-.094.1l-.306.324-.156.167A191.514,191.514,0,0,0,.453,51.96c-.152.22-.3.441-.453.664l.779-.752C1.292,51.377,1.822,50.864,2.194,50.516ZM29.236,20.758c-.162-.432-.479-1.319-.483-1.359a4.371,4.371,0,0,1,1.926-.278C30.2,19.666,29.727,20.2,29.236,20.758ZM39.9,13.9a47.042,47.042,0,0,0-5.69,4,11.011,11.011,0,0,1,3.339-.246c-.467.452-.892.871-1.33,1.275-.055.051-.1.054-.264.041a20.1,20.1,0,0,0-4.783.013A24.721,24.721,0,0,1,39.9,13.9Zm-13.647,3.42a2.316,2.316,0,0,1,.4-.834,4.666,4.666,0,0,1,2.526-1.831,1.7,1.7,0,0,1,1.584.256,1.52,1.52,0,0,1,.318,2.051,4.027,4.027,0,0,1-3.4,2.071A1.33,1.33,0,0,1,26.248,17.316Z" fill="#fff"/></g></g></svg>