<svg xmlns="http://www.w3.org/2000/svg" viewBox="0 0 303.629 78.01"><g id="Layer_2" data-name="Layer 2"><g id="Layer_2-2" data-name="Layer 2"><path d="M74.9,42.622c-2.762,2.177-5.394,5.565-9.106,5.837C60.277,47.726,72.1,32.6,73.366,30.073c5.669-8.268,9.3-18.41,18.09-24.043a21.814,21.814,0,0,1,14.508-3.314c1.676.264,2.831,1.565,4.2,2.5,1.775,1.248,2.8-.646,2.117-2.462C111.449.9,108.723.572,106.844.168,99.321-.84,89.473,3.7,84.8,9.607A12.993,12.993,0,0,1,81.972,11.9c-.792.543-1.114,1.655-1.862,2.455-4.177,4.831-8.42,9.674-12.646,14.415-2.047,2.217-4.209,4.689-7.273,5.4-1.392.22-7.286,1.923-7.287-.25,2.059-4.307,5.045-8.3,7.456-12.47a2.482,2.482,0,0,1,1.474-1.291,2.817,2.817,0,0,1,2.791,1.884c.32,1.148-1.474,2.706-.433,3.763,2.191,1.735,5.111-1.831,4.314-4.06a4.487,4.487,0,0,0-2.085-2.454c-1.006-.685-2.564-.992-2.736-1.838-.055-1.511,1.273-2.934,1.818-4.326C68.3,6.492,70.272,4.609,76.86,1.687,78.3.636,76.391.855,75.671,1.175,68.671,3.486,61.229.8,54.147.1c-4.915-.55-10.978,1.1-13.758,5.421-.834,2.857.034,6.72,3.348,7.738,2.491.741,5.276,1.249,7.69.236,2.588-1.153,6.091-3.054,6.366-6.136-.153-.321-.945.3-1.694.947a20.138,20.138,0,0,1-2.841,2.2c-1.651.791-3.753.635-5.594.563-2.753-.1-5.238-2.156-4.666-5.065C44.17,2.914,48.326,2.1,51.3,2.064c5.33.233,10.518,2.055,15.865,2.2,1.092,0,2.05.2,1.193,1.348-2.963,3.7-5.71,7.868-9.023,11.283a4.424,4.424,0,0,1-1.914.614,17.842,17.842,0,0,0-9.949,4.135,10.4,10.4,0,0,0-3.423,7.227c-.348,2.761.9,4.835,2.233,7.07a2.233,2.233,0,0,1-.409,1.924C39.364,47.914,24.74,53.275,13.67,48.528A14.785,14.785,0,0,1,4,33.454c1.026-5.522,5.1-11.225,10.772-12.64,5.135-1.331,12.754-1.964,16.335,2.753,2.655,4.049,1.072,9.689-2.271,12.821C26.454,38.3,22.778,39.242,19.872,38c-1.687-.773-3.291-2.923-2.213-4.726A3.131,3.131,0,0,1,18.3,32.5c.841-.851,3.129-1.2,1.938-2.116-3.928-1.236-8.523,4.008-5.5,7.5,5.885,5.936,17.518.27,20.627-6.337,1.51-3.341,1.683-9.136-2.08-11.019a27.475,27.475,0,0,0-23.965.787,12.175,12.175,0,0,0-3.168,2.674c-2.838,3.1-5.633,6.578-6.1,10.9l-.02.162A15.544,15.544,0,0,0,6.961,48.683c6.969,4.228,17.227,3.4,24.874,1.263a37.455,37.455,0,0,0,12.92-7.04c2.358-1.588,3.861-5.012,7.058-4.829,5.614-.033,10.817-2.6,15.034-6.191.883-.781,1.7-1.324.838.276-2.325,4.538-5.351,8.845-7.056,13.674-1.126,3.856,1.193,5.122,4.728,4.612,3.533-.531,6.543-3.244,9.034-5.728C74.891,44.25,76.775,41.2,74.9,42.622Zm-25.63-9.757a.579.579,0,0,1-.555.219c-1.992-2.04-1.97-5.663-1.343-8.362.667-3.093,3.7-3.905,6.414-4.352.708-.089,2.008-.566,2.57-.371l.041.058c.046.112-.045.313-.2.555a47.108,47.108,0,0,0-3.456,6.249A30.315,30.315,0,0,1,49.265,32.865Z" fill="#fff"/><path d="M139.855,50.562c5.191-2.779,10.292-7.535,10.52-13.784a3.744,3.744,0,0,0-3.707-3.39,13.287,13.287,0,0,0-4.309.648,1.494,1.494,0,0,1-1.291-.074,7.308,7.308,0,0,0-2.336-.2,1.09,1.09,0,0,0-1.183.669c-2.188,3.716-3.886,7.789-6.9,10.935-1.9,2.056-4.213,4.032-7.06,4.5-.455.076-.586-.077-.708-.521a2.1,2.1,0,0,1,.284-1.829,135.443,135.443,0,0,0,7.4-12.428l-3.564-.124c-2.51,4.149-4.782,8.439-7.834,12.226a2.026,2.026,0,0,1-.693.593c-1.35.612-2.713,1.2-4.082,1.764-.582.206-2.119.807-1.834-.371.437-2.293,1.782-4.259,2.892-6.272,1.474-2.489,3.067-4.9,4.554-7.384-.388-.906-1.366-.714-2.156-.8a1.07,1.07,0,0,0-1.067.542A91.312,91.312,0,0,0,111.5,43.1c-1.147,2.248-4.922,7.354-.926,8.513a4.522,4.522,0,0,0,2.478-.141c1.984-.706,3.925-1.4,5.889-2.182.622,1.111,1.078,2.14,2.429,2.374,3,.742,5.665-1.444,8.056-2.945-1.713,3.14-3.309,6.332-4.941,9.494h-2.241a1.722,1.722,0,0,1,.451,1.476c.011.64.006,1.28,0,1.92q-1.194,2.229-2.468,4.407-2.112-3.621-4.2-7.254a.981.981,0,0,0-1.009-.607c-.812.045-1.629.008-2.443.015a4.208,4.208,0,0,0-.56.094,1.711,1.711,0,0,1,.429,1.4q0,7.385,0,14.768a2.142,2.142,0,0,1-.422,1.678h3.805a12.557,12.557,0,0,1-.153-1.357c-.014-2.773,0-5.545-.01-8.317,0-.476-.038-.953-.068-1.429-.036-.559-.081-1.118-.129-1.77,2.238,4.469,4.848,8.61,7.175,12.878H126.1a12.422,12.422,0,0,1-.18-1.483q-.018-6.275-.006-12.549c2.189-4.053,4.5-8.036,7.032-11.893A5.669,5.669,0,0,0,139.855,50.562Zm-4.839-3.4c1.442-3.182,2.13-6.886,4.657-9.435,1.7-1.778,3.793-1.843,5.9-.722.548.207.813.564.678,1.041a12.309,12.309,0,0,1-9.609,11.243A1.589,1.589,0,0,1,135.016,47.165Zm-12.388,23.5a16.418,16.418,0,0,0-1.057-2.293h.327a1.988,1.988,0,0,0,.774-.482c.015,1.024.047,2.049.121,3.077A2.283,2.283,0,0,1,122.628,70.663Z" fill="#fff"/><path d="M105.379,48.672c-1.007.441-2.024.862-3.044,1.275-.66.267-.908.177-1.417-.469,4.109-7.6,8.463-15.081,13.144-22.347.439-.821,1.268-.482,2.045-.6-.422-1.375.236-2.462.632-3.6.089-.257.311-.327.577-.326q3.054.009,6.107,0a.481.481,0,0,1,.528.375c.353,1.144,1.113,2.206.622,3.487a17.354,17.354,0,0,0,4.241-.02c-2.556-5.8-4.368-11.915-6.661-17.826h-3.579a122.058,122.058,0,0,1-4.3,11.639c-2.692,5.067-5.64,9.987-8.7,14.842a.78.78,0,0,1-.943.409c-4.144-.744-8.747-.306-11.668,3.047a26.267,26.267,0,0,0-4.394,6.767c-.888,1.4-2.459,2.253-3.648,3.39a6.354,6.354,0,0,1-2.264,1.04.691.691,0,0,1-.779-.233c-.2-.25.018-.446.095-.658,2.314-4.664,4.678-9.256,6.961-13.944H85.522c-2.545,4.412-5.015,8.884-7.531,13.314a2.267,2.267,0,0,0,1.271,3.212,6.42,6.42,0,0,0,3.054.181,9.558,9.558,0,0,0,5.741-3.537c.63,5.669,6.467,3.216,9.744,1.487.221.632.068,1.4.741,1.671,3.545,1.287,7.122-1.006,9.678-3.335,1.864-1.694,2.106-4.28,2.57-6.619C109.171,43.863,108.341,47.31,105.379,48.672Zm14.827-36.218.183-.007c.834,2.283,1.57,4.6,2.392,6.992h-3.774c.166-.338.3-.608.478-.973l-1.055-.709C119.009,16.026,119.608,14.24,120.206,12.454ZM98.773,45.485c-1.317,2.2-3.535,4.683-6.368,3.852-1.562-.243-1.307-1.861-.814-2.954,2.008-4.036,4.891-8.266,9.539-9.4.962-.317,1.509.466,2.087,1.12C101.778,40.608,100.261,43.014,98.773,45.485Z" fill="#fff"/><path d="M144.784,26.974a11.407,11.407,0,0,0,5.666-2.056c.154-.1.289-.228.448-.355a2.169,2.169,0,0,1-.433-1.518c.014-2.078.006-4.157.006-6.236v-.835c-.323-.015-.579-.037-.835-.037-1.891,0-3.783,0-5.675,0a2.679,2.679,0,0,1-1.881-.383v3.74a7.365,7.365,0,0,1,1.256-.258c1.1-.036,2.2-.015,3.3-.009.183,0,.367.037.616.064,0,1.206,0,2.373,0,3.539,0,.3-.2.406-.422.509a6.325,6.325,0,0,1-8.843-7.306,5.938,5.938,0,0,1,9.383-3.376,4.75,4.75,0,0,0,.414.264,23.01,23.01,0,0,0-.038-4.451c-.73,0-1.441.016-2.15,0-.693-.019-1.385-.107-2.078-.105a8.386,8.386,0,0,0-5.965,2.418,9.522,9.522,0,0,0-2.983,7.273C134.628,23.257,138.863,27.276,144.784,26.974Z" fill="#fff"/><path d="M230.454,26.45a3.334,3.334,0,0,1,.218-2.227c.051-.159.1-.319.156-.476.486-1.344.155-1.117,1.551-1.14.551-.009,1.1,0,1.652,0,1.22,0,2.441,0,3.661,0,.3,0,.562.015.672.379.343,1.145,1.111,2.2.592,3.545h4.305c-.317-.679-.643-1.265-.87-1.886q-2.79-7.631-5.549-15.27c-.095-.263-.208-.518-.316-.786-.649,0-1.246,0-1.843,0s-1.219.013-1.712.019c-.165.638-.257,1.178-.445,1.681-1.085,2.906-2.169,5.813-3.3,8.7-.981,2.5-1.769,5.081-2.99,7.485A18.567,18.567,0,0,0,230.454,26.45Zm4.173-14.027a46.169,46.169,0,0,1,2.48,7.028H232.3C233.026,17.061,233.85,14.77,234.627,12.423Z" fill="#fff"/><path d="M190.05,20.505a9.359,9.359,0,0,0,.155,1.778,5.456,5.456,0,0,0,4.235,4.546,8.054,8.054,0,0,0,3.067.175,5.6,5.6,0,0,0,5.022-4.61,9.618,9.618,0,0,0,.213-1.988c.021-3.44.01-6.88.01-10.32a1.718,1.718,0,0,1,.4-1.446h-3.815a11,11,0,0,1,.18,1.354c.023,2.963.025,5.925.03,8.887,0,.765.016,1.531-.03,2.293a2.677,2.677,0,0,1-2.08,2.6,4.632,4.632,0,0,1-2.274-.05,2.159,2.159,0,0,1-1.634-1.555,6.009,6.009,0,0,1-.232-1.262c-.054-.761-.073-1.527-.076-2.291q-.012-3.976,0-7.955a3.244,3.244,0,0,1,.369-2.058h-3.758a13.058,13.058,0,0,1,.2,1.581C190.051,13.624,190.035,17.065,190.05,20.505Z" fill="#fff"/><path d="M174.726,26.534a2.26,2.26,0,0,1-.4-1.694c0-1.123,0-2.246,0-3.369V20.389a11.678,11.678,0,0,0,1.457.284,5.882,5.882,0,0,0,1.356-.092,5.585,5.585,0,0,0,4.42-3.368,7.04,7.04,0,0,0,.51-3.436,5.51,5.51,0,0,0-4.807-5.348,12.415,12.415,0,0,0-3.433-.042,4.969,4.969,0,0,1-2.715-.092v.938q0,7.632,0,15.265a3.616,3.616,0,0,1-.311,2.036Zm-.362-15.024a3.292,3.292,0,0,1,3.958.679,3.606,3.606,0,0,1,.047,4.208,3.22,3.22,0,0,1-4,.828Z" fill="#fff"/><path d="M211.337,10.225q0,7.341,0,14.683a1.9,1.9,0,0,1-.379,1.553,87.055,87.055,0,0,0,9.737-.032v-3.2a2.016,2.016,0,0,1-1.687.423q-1.83.009-3.66,0c-.231,0-.46-.029-.762-.049v-13.3a2.141,2.141,0,0,1,.43-1.687H210.9A1.87,1.87,0,0,1,211.337,10.225Z" fill="#fff"/><path d="M106.331,26.425V23.47a12.962,12.962,0,0,1-1.41.177c-1.292.024-2.584.01-3.876.007-.231,0-.463-.025-.772-.043v-.9q0-6.195,0-12.39a2.509,2.509,0,0,1,.318-1.682H96.814a12.637,12.637,0,0,1,.2,1.567c.014,4.894.007,9.788.011,14.682a2.252,2.252,0,0,1-.412,1.617A84.809,84.809,0,0,0,106.331,26.425Z" fill="#fff"/><path d="M162.4,26.534a12.021,12.021,0,0,1-.173-1.4q-.018-7.529,0-15.056a10.586,10.586,0,0,1,.2-1.442H158.79a11.543,11.543,0,0,1,.2,1.488q.022,6.848,0,13.693a4.936,4.936,0,0,1-.328,2.719Z" fill="#fff"/><path d="M90.234,27.943c-.048,0-.1,0-.144,0l-.011-.055a6.824,6.824,0,0,0-1.037.238,1.642,1.642,0,0,0-.954,1.881,1.88,1.88,0,0,0,3.2,1.065,1.856,1.856,0,0,0,.606-2.127A1.619,1.619,0,0,0,90.234,27.943Z" fill="#fff"/><path d="M302.935,64.085c-.449-.756.361-2-.4-2.585-1.4-.919-3.627-.507-5.1-.358a9.4,9.4,0,0,1-3.232.016,1.318,1.318,0,0,0-1.439.484c-2.659,3.331-4,7.637-6.787,10.814-1.5,1.24-2.948,2.925-4.857,3.422a.963.963,0,0,1-.863-.122c-.293-.271-.068-.8.08-1.145,2.031-4.349,4.582-8.61,6.36-13.021,0-.279-.327-.37-.55-.42-1-.033-2.334-.342-2.931.691-2.493,3.987-4.182,8.776-7.764,11.935-.695.829-6.23,3.545-5.279.843,1.433-3.91,4.676-6.92,5.879-10.942.3-3.867-4.786-3.738-7.241-2.424-.543.231-2.07,1.15-1.512-.066,2.594-4.879,5.391-9.593,8.239-14.31.929-1.561,1.946-3.162,2.834-4.7.157-.335.1-.562-.206-.65a8.456,8.456,0,0,0-1.535-.092c-.717.039-1.392-.157-1.93.2-6.171,10.118-11.719,20.738-17.838,30.924a9.112,9.112,0,0,1-3.84,3.029c-2.1-.161-2.184-3.064-2.824-4.607-.131-.79-1.246-1.994-.128-2.467,2.9-1.2,7.1-1.728,8.075-5.242.388-1.312-.063-3.061-1.685-3.135-1.452-.26-3.09.49-2.307,2.208.9,2.717-2.756,4.241-4.82,4.787-.712.223-2.455.48-1.776-.8C252,58.6,256.641,50.9,261.1,43.2c.276-.624,1.208-2.117.088-2.282a4.242,4.242,0,0,0-2.657.353,7.243,7.243,0,0,0-1.623,1.906c-5.827,8.971-10.664,18.567-16.367,27.6a16.443,16.443,0,0,1-7.141,4.924c-.727.217-1.964.9-2.49.184a1.529,1.529,0,0,1,.176-1.547c2.114-3.63,4.48-7.167,6.5-10.843.184-.564.513-1.624-.089-1.972-.416-.161-1.14.213-1.718.012-4.06-2.435-8.369-.468-11.9,2.284-.4.29-.949.371-1.051-.238-.08-.64.269-1.472-.135-1.923-1.864-1.481-4.553-.377-6.655-.374-1.094.21-2.44-.718-3.236.324-2.087,2.585-3.3,5.972-5.294,8.52-.284.079-.157-1.1-.253-1.474-.147-.5-.562.779-.618.983a16.315,16.315,0,0,1-.922,2.336c-1.4,2.561-8.221,6.762-9.162,1.856-.328-1.818.476-3.506,2.3-3.841,3.764-1,8.084-2.11,8.75-6.484.407-4.625-5.884-1.871-7.913-.514a15.149,15.149,0,0,0-5.672,6.264c-.982,2.339-1.5,5.742.325,7.851,2.6,2.266,7.022-.334,9.686-1.468.211.118-.034.374-.237.713-.24.335-.378.648-.231.882a1.267,1.267,0,0,0,.452.332,2.585,2.585,0,0,0,3.6-1.064c1.96-3.554,4-7.122,6.042-10.583,1.149-1.831,3.178-3.931,5.391-3.57a.718.718,0,0,1,.612.82c-.126.954-1.42,2.7,0,3.048.554.037,1.543-.269,1.52.085-.348.909-1.8,2.158-2.346,3.133-1.287,1.784-2.066,4.248-1.174,6.323a2.88,2.88,0,0,0,3.221,2.087c.7.176,4.692-.611,3.4-1.633-.833-.2-1.634.241-2.275-.4-2.39-3.678,2.954-9.2,5.334-11.892,1.192-1.344,3-2.552,4.751-1.376.939.559,1.521,1.219.89,2.158-2.018,3.8-4.033,7.681-7.257,10.6-.516.508-.279,1.171.464.8.569-.337,1.033-.355,1.332.241,1.786,3.53,7.663.178,9.977-1.312.367-.241.674-.322.372.316-.212.712-1.48,2.149-.115,2.263,1.535.257,3.07.17,3.767-1.325,1.179-2.123,2.3-4.3,3.529-6.346a.868.868,0,0,1,.458-.343c1.893.174,1.681,3.319,2.076,4.761.561,2.891,2.251,3.99,5.117,3.382a4.183,4.183,0,0,1,1.31-.06,7.554,7.554,0,0,0,1.647.163c.893-.031,1.939.206,2.476-.654,3.316-4.859,6.179-15.3,13.252-14.91,1.263.168.911,1.488.513,2.289-1.7,3.813-5.255,7.126-5.566,11.435.666,3.311,6.5.812,8.789-.377.321-.164.542-.15.7.233.66,2.776,4.325,2.317,6.387,1.51a2.077,2.077,0,0,1,1.829.221,2.6,2.6,0,0,0,3.581-1.136c1.846-3.355,3.755-6.684,5.656-10,1.212-1.977,3.648-5.068,6.218-3.893.676.912-1.429,2.931-.061,3.591a8.542,8.542,0,0,0,2.237-.182,6.2,6.2,0,0,0,1.884-.37l.055-.076C303.708,65.044,303.133,64.545,302.935,64.085Zm-98.777-.58c.2,2.7-3.007,4.421-5.285,4.944l-.034-.033C199.654,66.3,201.667,63.439,204.158,63.505Z" fill="#fff"/><path d="M191.873,52.231c-1.5-1.821,2.558-2.851,3.6-3.854,2.52-1.641,3.645-4.691,4.326-7.565.63-2.4-.262-4.869-1.411-6.989-.559-1.072-1.919-2.394-.015-2.837a35.462,35.462,0,0,1,21.444.913c1.048.354,2.921,2.456,3.548,1a1.363,1.363,0,0,0-.5-.952,21.274,21.274,0,0,0-13.939-5.413,27.983,27.983,0,0,0-12.674,2.632,3.533,3.533,0,0,1-1.82.485c-2.094-.609-3.918-2.095-6.108-2.45A43.117,43.117,0,0,0,160.74,30.8c-6.455,3.191-12.909,9.479-13.117,16.875a18.277,18.277,0,0,1-2.088,1.3c-.481.256-.984.471-1.528.729.081.281.157.545.248.865.647-.209,1.238-.389,1.821-.592a15.114,15.114,0,0,0,1.605-.667,13.437,13.437,0,0,0,.436,2.335c2.237,6.805,11.284,6.016,16.422,3.282,4.458-2.759,7.582-7.595,6.99-12.967-.676-2.406-4.446-3.667-6.191-1.75-.651.713-.884,2.071-.346,2.568l.093.079c.756.477,1.816-.015,2.617.413,1.471.789,1.1,3.453.452,4.851a10.063,10.063,0,0,1-9.967,6.166,6.2,6.2,0,0,1-6.776-4.758,10.616,10.616,0,0,1-.086-2.891,11.021,11.021,0,0,0,.956-1.183c.945-1.366,1.771-2.816,2.65-4.228l-.219-.167a5.718,5.718,0,0,1-.488.612c-.772.739-1.539,1.481-2.311,2.219a19.049,19.049,0,0,1,3.374-6.031c7.2-8.342,19.011-10.965,29.5-8.57,2.076.568,4.473,1.266,6.039,2.766.341.48-.119.994-.8,1.509-2.181,1.792-4.527,3.426-6.537,5.434-5.887,6.061-9.769,13.656-14.163,20.739-3.762,6.7-8.741,13.613-16.473,15.9-3.655,1.115-16.525-.489-12.79-6.434.638-.9.336-1.727-.659-1.9a2.8,2.8,0,0,0-3.064,1.525,5.392,5.392,0,0,0,.4,5.2,9.712,9.712,0,0,0,7.071,3.636,24.108,24.108,0,0,0,19.3-5.716c8.651-7.371,13.938-17.432,19.8-26.942a34.98,34.98,0,0,1,8.187-10.159c2.419-1.888,3.232-.657,4.213,1.577a9.653,9.653,0,0,1-.616,9.157c-2.259,4.113-7.389,4.047-11.416,4.943-1.684.157-2.34,1.726-.263,1.873,7.513-.821,8.741,7.388,6.847,12.989a15.626,15.626,0,0,1-6.922,8.544c-3.268,2.035-9.593,2.421-10.754-2.2a4.653,4.653,0,0,1-.007-2.914c.513-1.553-.9-1.43-1.688-.709-3.807,3.413-1.378,8.534,3.274,9.4,5.063.966,9.974-1.946,13.682-5.066C192.275,67.21,197.444,58.751,191.873,52.231Z" fill="#fff"/><path d="M99.705,60.666c-.252-.7-.511-1.389-.763-2.085-.076-.211-.159-.406-.43-.406H95.223c-.188.711-.292,1.3-.5,1.846-1.077,2.886-2.152,5.772-3.281,8.638a78.148,78.148,0,0,1-2.981,7.45H92.7a3.976,3.976,0,0,1-.084-1.173c.218-.9.532-1.773.809-2.661h7.067c.356,1.261,1.231,2.379.731,3.83H105.5c-.293-.615-.615-1.174-.834-1.771Q102.169,67.506,99.705,60.666Zm-5.179,8.35,2.354-7.008.174,0c.781,2.312,1.563,4.623,2.369,7Z" fill="#fff"/><path d="M59.075,64.965c-.757-2.086-1.521-4.17-2.27-6.259-.114-.316-.226-.552-.632-.543-1.005.022-2.011.008-3.016.016a.709.709,0,0,0-.233.088,5.7,5.7,0,0,1-.046.748,5.29,5.29,0,0,1-.237.749c-.138.382-.283.761-.43,1.139-1.968,5.062-3.771,10.188-5.85,15.193a21.858,21.858,0,0,0,4.209-.061,2.758,2.758,0,0,1,.1-2.02c.147-.377.252-.771.383-1.155.21-.615.212-.62.849-.621q2.908-.006,5.817,0c.185,0,.371.033.594.055.365,1.259,1.228,2.38.715,3.825h4.3c-.291-.6-.595-1.116-.8-1.668C61.364,71.294,60.225,68.128,59.075,64.965ZM52.492,69a39.2,39.2,0,0,1,2.389-6.951q1.162,3.429,2.323,6.859A21.423,21.423,0,0,1,52.492,69Z" fill="#fff"/><path d="M80.945,69.678a7.921,7.921,0,0,0-4.076-2.914c-.176-.055-.347-.127-.619-.228l6.4-8.314h-4.6a1.169,1.169,0,0,1-.195,1.374c-1.29,1.722-2.572,3.452-3.862,5.175a4.139,4.139,0,0,1-.438.409v-.853c0-1.315-.005-2.629,0-3.944a4.037,4.037,0,0,1,.3-2.165H69.873a2.264,2.264,0,0,1,.426,1.695q0,7.062,0,14.125a3.3,3.3,0,0,1-.355,2.069h3.823a7.7,7.7,0,0,1-.207-1.2c-.021-1.768-.01-3.537-.008-5.306,0-.231.025-.463.039-.692a1.584,1.584,0,0,1,.281-.019c3.214.441,6.562,3.812,5.85,7.186a20.4,20.4,0,0,0,3.988-.006c-.261-.759-.554-1.511-.778-2.283A12.649,12.649,0,0,0,80.945,69.678Z" fill="#fff"/><path d="M287.874,57.884a2.1,2.1,0,0,0,2.166-2.038c-.007-1.091-.691-1.662-1.97-1.646-1.246.016-2,.693-1.979,1.774A1.969,1.969,0,0,0,287.874,57.884Z" fill="#fff"/></g></g></svg>