<svg xmlns="http://www.w3.org/2000/svg" viewBox="0 0 342.938 112.902"><g id="Layer_2" data-name="Layer 2"><g id="Layer_3" data-name="Layer 3"><path d="M8.271,24.615H2.325a1.6,1.6,0,0,0,.764-1.262V1.894A1.552,1.552,0,0,0,2.325.632H8.271a1.549,1.549,0,0,0-.764,1.262V10.1l5.747-7.74a1.354,1.354,0,0,0,.332-.864,1.482,1.482,0,0,0-.365-.863h6.71a10.368,10.368,0,0,0-1.363,1.394l-7.506,9.8c3.454.764,6.045,3.023,7.838,6.777,1.363,2.823,1.23,5.182,2.592,6.012H15.446a5.472,5.472,0,0,0,.266-1.528c0-3.288-3.289-7.607-8.2-8.2v8.471A1.505,1.505,0,0,0,8.271,24.615Z" fill="#fff"/><path d="M22.724.632h5.913a1.6,1.6,0,0,0-.765,1.262V23.386a1.456,1.456,0,0,0,.765,1.229H22.724a1.6,1.6,0,0,0,.763-1.262V1.894A1.6,1.6,0,0,0,22.724.632Z" fill="#fff"/><path d="M32.425,23.353V.333A3.132,3.132,0,0,0,33.986.8c.83,0,2.259-.4,4.385-.4,4.65,0,7.374,2.724,7.374,7.142a5.581,5.581,0,0,1-3.554,5.681A8.665,8.665,0,0,1,48,19.367c.466,1.561.4,3.487,1.727,5.248H43.852a2.4,2.4,0,0,0,.665-1.528,8.6,8.6,0,0,0-7.741-8.038v8.3a1.6,1.6,0,0,0,.764,1.262H31.694A1.555,1.555,0,0,0,32.425,23.353Zm5.647-12.091a3.226,3.226,0,0,0,3.421-3.356,3.237,3.237,0,0,0-3.288-3.387,8.558,8.558,0,0,0-1.429.166v6.477C37.374,11.229,37.84,11.262,38.072,11.262Z" fill="#fff"/><path d="M51.2.632h5.913a1.6,1.6,0,0,0-.764,1.262V23.386a1.455,1.455,0,0,0,.764,1.229H51.2a1.6,1.6,0,0,0,.764-1.262V1.894A1.6,1.6,0,0,0,51.2.632Z" fill="#fff"/><path d="M65.05,12.59l-1.3,9.8a3.429,3.429,0,0,0-.033.564,2.8,2.8,0,0,0,.532,1.661H58.639a4.232,4.232,0,0,0,.8-1.893L62.393,2.159v-.2a2.279,2.279,0,0,0-.5-1.328h4.817l3.72,10.8c.133.4.565,1.827,1.163,4.318.5-1.927.963-3.355,1.3-4.351L76.51.632h4.817a2.279,2.279,0,0,0-.5,1.328v.2l2.957,20.563a4.232,4.232,0,0,0,.8,1.893H79a2.8,2.8,0,0,0,.531-1.661,3.429,3.429,0,0,0-.033-.564l-1.329-9.767q-.15-1.2-.4-4.684c-.6,2.458-1.063,3.854-1.229,4.319L71.594,25.246,66.545,12.357a22.756,22.756,0,0,1-1.1-4.418C65.349,9.7,65.216,11.262,65.05,12.59Z" fill="#fff"/><path d="M91.794,24.615H85.849a1.6,1.6,0,0,0,.763-1.262V1.894A1.55,1.55,0,0,0,85.849.632h5.945a1.552,1.552,0,0,0-.764,1.262V10.1l5.747-7.74a1.348,1.348,0,0,0,.332-.864,1.476,1.476,0,0,0-.365-.863h6.71a10.351,10.351,0,0,0-1.362,1.394l-7.507,9.8c3.454.764,6.046,3.023,7.839,6.777,1.362,2.823,1.229,5.182,2.592,6.012H98.97a5.468,5.468,0,0,0,.265-1.528c0-3.288-3.289-7.607-8.2-8.2v8.471A1.507,1.507,0,0,0,91.794,24.615Z" fill="#fff"/><path d="M120.631,23.22a2.857,2.857,0,0,0-.133-.93l-1.063-2.923H110.2l-.964,2.923a3.28,3.28,0,0,0-.166.963,3.685,3.685,0,0,0,.333,1.362h-6.178a5.786,5.786,0,0,0,1.2-1.96l7.707-20.362a2.451,2.451,0,0,0,.166-.931,6.193,6.193,0,0,0-.1-.73h5.082l7.973,22.023a6.057,6.057,0,0,0,1.23,1.96H120.3A3.71,3.71,0,0,0,120.631,23.22Zm-2.591-8.138-3.223-9.534-3.188,9.534Z" fill="#fff"/><path d="M133.224,24.615h-5.879a1.6,1.6,0,0,0,.763-1.262V1.894a1.6,1.6,0,0,0-.763-1.262h5.148l7.641,13.187a24.725,24.725,0,0,1,2.026,4.651,28,28,0,0,1-.432-4.651V1.894a1.6,1.6,0,0,0-.764-1.262h5.88a1.556,1.556,0,0,0-.732,1.262V23.386a1.421,1.421,0,0,0,.732,1.229h-5.116l-8-14.085a15.183,15.183,0,0,1-1.6-3.786c.232,2.126.365,3.521.365,4.119V23.386A1.42,1.42,0,0,0,133.224,24.615Z" fill="#fff"/><path d="M261.278,23.353V1.894a1.6,1.6,0,0,0-.763-1.262h13.851V5.349a1.544,1.544,0,0,0-1.228-.764h-7.475v6.078h4.75a1.458,1.458,0,0,0,1.23-.764v5.482a1.6,1.6,0,0,0-1.263-.765h-4.717v8.737a1.6,1.6,0,0,0,.764,1.262h-5.912A1.6,1.6,0,0,0,261.278,23.353Z" fill="#fff"/><path d="M279.517,3.688a12.389,12.389,0,0,1,17.639,0,12.754,12.754,0,0,1,0,17.872,12.394,12.394,0,0,1-17.639,0,12.667,12.667,0,0,1-3.687-8.97A12.428,12.428,0,0,1,279.517,3.688Zm8.836,17.24a8.136,8.136,0,0,0,7.972-8.305,7.98,7.98,0,1,0-15.944,0A8.157,8.157,0,0,0,288.353,20.928Z" fill="#fff"/><path d="M307.125,23.353V4.618H303.4a1.544,1.544,0,0,0-1.229.764V.632h14.317v4.75a1.6,1.6,0,0,0-1.263-.764h-3.72V23.386a1.457,1.457,0,0,0,.764,1.229h-5.913A1.6,1.6,0,0,0,307.125,23.353Z" fill="#fff"/><path d="M321.511,3.688a12.389,12.389,0,0,1,17.639,0,12.754,12.754,0,0,1,0,17.872,12.394,12.394,0,0,1-17.639,0,12.667,12.667,0,0,1-3.687-8.97A12.428,12.428,0,0,1,321.511,3.688Zm8.836,17.24a8.136,8.136,0,0,0,7.972-8.305,7.98,7.98,0,1,0-15.944,0A8.157,8.157,0,0,0,330.347,20.928Z" fill="#fff"/><path d="M13.055,53.823H7.175a1.6,1.6,0,0,0,.763-1.262V42.1L1.029,31.334A11.227,11.227,0,0,0,0,29.84H6.111a1.834,1.834,0,0,0-.4.93,1.628,1.628,0,0,0,.266.831l4.152,6.144L14.283,31.6a1.53,1.53,0,0,0,.266-.8,1.813,1.813,0,0,0-.4-.963h6.113a9.3,9.3,0,0,0-1.03,1.494L12.323,42.1v10.5A1.419,1.419,0,0,0,13.055,53.823Z" fill="#fff"/><path d="M34.117,52.428a2.857,2.857,0,0,0-.133-.93l-1.063-2.923H23.687L22.723,51.5a3.248,3.248,0,0,0-.166.963,3.666,3.666,0,0,0,.333,1.362H16.711a5.77,5.77,0,0,0,1.2-1.96L25.613,31.5a2.442,2.442,0,0,0,.166-.93,6.4,6.4,0,0,0-.1-.73h5.082l7.972,22.023a6.074,6.074,0,0,0,1.23,1.96H33.785A3.71,3.71,0,0,0,34.117,52.428ZM31.526,44.29,28.3,34.756,25.115,44.29Z" fill="#fff"/><path d="M46.71,53.823H40.831a1.6,1.6,0,0,0,.764-1.262V31.1a1.6,1.6,0,0,0-.764-1.262h5.148L53.62,43.027a24.66,24.66,0,0,1,2.026,4.651,28.111,28.111,0,0,1-.432-4.651V31.1a1.6,1.6,0,0,0-.764-1.262h5.88A1.555,1.555,0,0,0,59.6,31.1V52.594a1.42,1.42,0,0,0,.731,1.229H55.214l-8-14.085a15.22,15.22,0,0,1-1.6-3.786c.233,2.126.365,3.521.365,4.119V52.594A1.42,1.42,0,0,0,46.71,53.823Z" fill="#fff"/><path d="M75.813,54.454c-7.673,0-12.822-5.447-12.822-12.457a13.081,13.081,0,0,1,2.857-8.27,11.708,11.708,0,0,1,9.134-4.453c1.861,0,3.256.267,4.12.267a3.818,3.818,0,0,0,1.561-.366v6.477a7.707,7.707,0,0,0-5.249-2.225,8.154,8.154,0,0,0-8.071,8.3,8.282,8.282,0,0,0,8.6,8.338,8.754,8.754,0,0,0,3.853-1.1v-5.15H74.186a1.7,1.7,0,0,0-1.3.765v-5.78a1.7,1.7,0,0,0,1.3.8H84.15V50.036a2.248,2.248,0,0,0,.632,1.2C81.659,53.358,78.936,54.454,75.813,54.454Z" fill="#fff"/><path d="M133.18,52.561V33.826h-3.72a1.547,1.547,0,0,0-1.23.764V29.84h14.318v4.75a1.6,1.6,0,0,0-1.263-.764h-3.721V52.594a1.458,1.458,0,0,0,.765,1.229h-5.913A1.6,1.6,0,0,0,133.18,52.561Z" fill="#fff"/><path d="M144.376,29.84h5.913a1.6,1.6,0,0,0-.765,1.262V52.594a1.456,1.456,0,0,0,.765,1.229h-5.913a1.6,1.6,0,0,0,.764-1.262V31.1A1.6,1.6,0,0,0,144.376,29.84Z" fill="#fff"/><path d="M154.11,52.561V29.274a3.671,3.671,0,0,0,1.728.632c1,0,2.591-.6,4.85-.6a12.191,12.191,0,0,1,12.423,12.556c0,7.01-4.916,11.959-13.786,11.959h-5.978A1.645,1.645,0,0,0,154.11,52.561Zm4.385-2.89c.233,0,.465.033.7.033,5.747,0,9.269-3.621,9.269-8.172a7.845,7.845,0,0,0-8.106-7.9c-.531,0-1.163.033-1.86.1Z" fill="#fff"/><path d="M190.289,52.428a2.857,2.857,0,0,0-.133-.93l-1.063-2.923h-9.235L178.9,51.5a3.248,3.248,0,0,0-.166.963,3.666,3.666,0,0,0,.333,1.362h-6.179a5.786,5.786,0,0,0,1.195-1.96L181.785,31.5a2.442,2.442,0,0,0,.166-.93,6.4,6.4,0,0,0-.1-.73h5.082l7.972,22.023a6.074,6.074,0,0,0,1.23,1.96h-6.179A3.71,3.71,0,0,0,190.289,52.428ZM187.7,44.29l-3.222-9.534-3.189,9.534Z" fill="#fff"/><path d="M202.947,53.823H197a1.6,1.6,0,0,0,.764-1.262V31.1A1.552,1.552,0,0,0,197,29.84h5.945a1.55,1.55,0,0,0-.763,1.262v8.205l5.747-7.74a1.354,1.354,0,0,0,.332-.864,1.478,1.478,0,0,0-.366-.863h6.71a10.413,10.413,0,0,0-1.362,1.394l-7.507,9.8c3.454.764,6.046,3.023,7.839,6.777,1.362,2.824,1.23,5.182,2.592,6.012h-6.046a5.478,5.478,0,0,0,.266-1.528c0-3.288-3.289-7.607-8.205-8.2v8.471A1.506,1.506,0,0,0,202.947,53.823Z" fill="#fff"/><path d="M274.765,52.428a2.884,2.884,0,0,0-.133-.93l-1.064-2.923h-9.234L263.37,51.5a3.28,3.28,0,0,0-.166.963,3.685,3.685,0,0,0,.333,1.362h-6.179a5.773,5.773,0,0,0,1.2-1.96L266.261,31.5a2.461,2.461,0,0,0,.166-.93,6.41,6.41,0,0,0-.1-.73h5.082l7.973,22.023a6.054,6.054,0,0,0,1.229,1.96h-6.178A3.71,3.71,0,0,0,274.765,52.428Zm-2.591-8.138-3.223-9.534-3.188,9.534Z" fill="#fff"/><path d="M287.423,53.823h-5.945a1.6,1.6,0,0,0,.763-1.262V31.1a1.55,1.55,0,0,0-.763-1.262h5.945a1.552,1.552,0,0,0-.764,1.262v8.205l5.747-7.74a1.348,1.348,0,0,0,.332-.864,1.482,1.482,0,0,0-.365-.863h6.71a10.351,10.351,0,0,0-1.362,1.394l-7.507,9.8c3.454.764,6.046,3.023,7.839,6.777,1.362,2.824,1.229,5.182,2.592,6.012H294.6a5.474,5.474,0,0,0,.265-1.528c0-3.288-3.289-7.607-8.2-8.2v8.471A1.507,1.507,0,0,0,287.423,53.823Z" fill="#fff"/><path d="M316.26,52.428a2.857,2.857,0,0,0-.133-.93l-1.064-2.923h-9.234l-.964,2.923a3.28,3.28,0,0,0-.166.963,3.685,3.685,0,0,0,.333,1.362h-6.178a5.786,5.786,0,0,0,1.195-1.96L307.756,31.5a2.461,2.461,0,0,0,.166-.93,6.41,6.41,0,0,0-.1-.73H312.9l7.973,22.023a6.071,6.071,0,0,0,1.229,1.96h-6.178A3.71,3.71,0,0,0,316.26,52.428Zm-2.591-8.138-3.223-9.534-3.188,9.534Z" fill="#fff"/><path d="M328.853,53.823h-5.879a1.6,1.6,0,0,0,.763-1.262V31.1a1.6,1.6,0,0,0-.763-1.262h5.148l7.641,13.187a24.79,24.79,0,0,1,2.026,4.651,28.015,28.015,0,0,1-.433-4.651V31.1a1.6,1.6,0,0,0-.763-1.262h5.88a1.556,1.556,0,0,0-.732,1.262V52.594a1.421,1.421,0,0,0,.732,1.229h-5.117l-8-14.085a15.183,15.183,0,0,1-1.595-3.786c.232,2.126.365,3.521.365,4.119V52.594A1.418,1.418,0,0,0,328.853,53.823Z" fill="#fff"/><path d="M3.122,81.768V58.615a4,4,0,0,0,1.528.4c.731,0,2.226-.366,4.485-.366,5.414,0,8.57,3.123,8.57,8.3A7.84,7.84,0,0,1,9.566,75.19a6.705,6.705,0,0,1-2.092-.464v7.042A1.511,1.511,0,0,0,8.2,83.03H2.358A1.552,1.552,0,0,0,3.122,81.768ZM9.4,71.005a4.091,4.091,0,0,0,4.153-4.152c0-2.558-1.529-4.286-3.754-4.286a8.015,8.015,0,0,0-2.325.333v7.673A5.05,5.05,0,0,0,9.4,71.005Z" fill="#fff"/><path d="M25.58,73.031v6.046h7.475a1.541,1.541,0,0,0,1.228-.764V83.03H20.4a1.6,1.6,0,0,0,.764-1.262V60.309a1.6,1.6,0,0,0-.764-1.262H34.283v4.717A1.544,1.544,0,0,0,33.055,63H25.58v6.078h4.684a1.507,1.507,0,0,0,1.262-.764V73.8a1.6,1.6,0,0,0-1.262-.765Z" fill="#fff"/><path d="M37.642,81.768V58.748a3.132,3.132,0,0,0,1.561.465c.83,0,2.259-.4,4.385-.4,4.65,0,7.374,2.724,7.374,7.142a5.581,5.581,0,0,1-3.554,5.681,8.667,8.667,0,0,1,5.813,6.145c.466,1.561.4,3.488,1.727,5.248h-5.88a2.391,2.391,0,0,0,.665-1.528,8.6,8.6,0,0,0-7.74-8.039v8.305a1.6,1.6,0,0,0,.764,1.262H36.911A1.555,1.555,0,0,0,37.642,81.768Zm5.647-12.091a3.372,3.372,0,0,0,.133-6.743,8.547,8.547,0,0,0-1.429.166v6.477C42.591,69.644,43.057,69.677,43.289,69.677Z" fill="#fff"/><path d="M62.026,83.03H56.147a1.6,1.6,0,0,0,.764-1.262V60.309a1.6,1.6,0,0,0-.764-1.262H61.3l7.641,13.187a24.79,24.79,0,0,1,2.026,4.651,28.015,28.015,0,0,1-.433-4.651V60.309a1.6,1.6,0,0,0-.763-1.262h5.879a1.555,1.555,0,0,0-.731,1.262V81.8a1.42,1.42,0,0,0,.731,1.229H70.53L62.525,68.945a15.2,15.2,0,0,1-1.594-3.786c.232,2.126.365,3.521.365,4.119V81.8A1.419,1.419,0,0,0,62.026,83.03Z" fill="#fff"/><path d="M93.82,81.635a2.884,2.884,0,0,0-.132-.93l-1.064-2.923H83.39l-.964,2.923a3.248,3.248,0,0,0-.166.963,3.685,3.685,0,0,0,.333,1.362H76.414a5.754,5.754,0,0,0,1.195-1.96l7.707-20.363a2.442,2.442,0,0,0,.166-.93,6.4,6.4,0,0,0-.1-.73h5.082L98.438,81.07a6.054,6.054,0,0,0,1.229,1.96H93.488A3.691,3.691,0,0,0,93.82,81.635ZM91.229,73.5l-3.222-9.534L84.818,73.5Z" fill="#fff"/><path d="M114.982,60.309a1.6,1.6,0,0,0-.763-1.262h5.88a1.555,1.555,0,0,0-.731,1.262V81.8a1.42,1.42,0,0,0,.731,1.229h-5.88a1.55,1.55,0,0,0,.763-1.262V73.031h-9.3V81.8a1.419,1.419,0,0,0,.73,1.229h-5.879a1.6,1.6,0,0,0,.764-1.262V60.309a1.6,1.6,0,0,0-.764-1.262h5.879a1.554,1.554,0,0,0-.73,1.262v8.769h9.3Z" fill="#fff"/><path d="M147,83.03h-5.945a1.6,1.6,0,0,0,.763-1.262V60.309a1.55,1.55,0,0,0-.763-1.262H147a1.552,1.552,0,0,0-.764,1.262v8.2l5.747-7.74a1.348,1.348,0,0,0,.332-.864,1.476,1.476,0,0,0-.365-.863h6.71a10.351,10.351,0,0,0-1.362,1.394l-7.507,9.8c3.454.764,6.046,3.023,7.839,6.777,1.362,2.824,1.229,5.182,2.592,6.012h-6.046a5.474,5.474,0,0,0,.265-1.528c0-3.288-3.289-7.606-8.205-8.2v8.471A1.507,1.507,0,0,0,147,83.03Z" fill="#fff"/><path d="M175.837,81.635a2.857,2.857,0,0,0-.133-.93l-1.063-2.923h-9.235l-.964,2.923a3.28,3.28,0,0,0-.166.963,3.685,3.685,0,0,0,.333,1.362h-6.178a5.786,5.786,0,0,0,1.195-1.96l7.707-20.363a2.442,2.442,0,0,0,.166-.93,6.193,6.193,0,0,0-.1-.73h5.082l7.973,22.023a6.057,6.057,0,0,0,1.23,1.96h-6.179A3.71,3.71,0,0,0,175.837,81.635ZM173.246,73.5l-3.223-9.534L166.835,73.5Z" fill="#fff"/><path d="M187.434,71.005l-1.3,9.8a3.329,3.329,0,0,0-.034.564,2.792,2.792,0,0,0,.533,1.661h-5.615a4.221,4.221,0,0,0,.8-1.893l2.957-20.563v-.2a2.279,2.279,0,0,0-.5-1.328H189.1l3.719,10.8c.134.4.566,1.827,1.164,4.318.5-1.927.962-3.355,1.295-4.351l3.621-10.763h4.817a2.279,2.279,0,0,0-.5,1.328v.2l2.957,20.563a4.232,4.232,0,0,0,.8,1.893h-5.58a2.8,2.8,0,0,0,.531-1.661,3.429,3.429,0,0,0-.033-.564l-1.329-9.767q-.15-1.2-.4-4.684c-.6,2.458-1.063,3.854-1.229,4.319l-4.949,12.988-5.049-12.889a22.683,22.683,0,0,1-1.1-4.418C187.732,68.115,187.6,69.677,187.434,71.005Z" fill="#fff"/><path d="M208.066,59.047h5.913a1.514,1.514,0,0,0-.8,1.262V73.7c0,3.72.531,5.68,4.285,5.68a3.881,3.881,0,0,0,3.256-1.494,5.135,5.135,0,0,0,.7-3.123v-1.2l-.033-13.254a1.476,1.476,0,0,0-.765-1.262h5.88a1.535,1.535,0,0,0-.764,1.394v14.55c0,5.515-3.455,8.7-8.3,8.7-5.282,0-8.6-3.122-8.6-8.769V60.309A1.552,1.552,0,0,0,208.066,59.047Z" fill="#fff"/><path d="M261.74,60.309a1.6,1.6,0,0,0-.763-1.262h5.879a1.554,1.554,0,0,0-.73,1.262V81.8a1.419,1.419,0,0,0,.73,1.229h-5.879a1.55,1.55,0,0,0,.763-1.262V73.031h-9.3V81.8a1.42,1.42,0,0,0,.731,1.229h-5.879a1.6,1.6,0,0,0,.764-1.262V60.309a1.6,1.6,0,0,0-.764-1.262h5.879a1.555,1.555,0,0,0-.731,1.262v8.769h9.3Z" fill="#fff"/><path d="M284.964,81.635a2.857,2.857,0,0,0-.133-.93l-1.063-2.923h-9.235l-.964,2.923a3.28,3.28,0,0,0-.166.963,3.685,3.685,0,0,0,.333,1.362h-6.178a5.786,5.786,0,0,0,1.195-1.96l7.707-20.363a2.442,2.442,0,0,0,.166-.93,6.193,6.193,0,0,0-.1-.73h5.082l7.973,22.023a6.057,6.057,0,0,0,1.23,1.96h-6.179A3.71,3.71,0,0,0,284.964,81.635ZM282.373,73.5l-3.223-9.534L275.962,73.5Z" fill="#fff"/><path d="M292.475,81.768V58.615a3.989,3.989,0,0,0,1.528.4c.73,0,2.226-.366,4.484-.366,5.414,0,8.571,3.123,8.571,8.3a7.84,7.84,0,0,1-8.139,8.238,6.7,6.7,0,0,1-2.093-.464v7.042a1.512,1.512,0,0,0,.731,1.262h-5.846A1.552,1.552,0,0,0,292.475,81.768Zm6.278-10.763a4.09,4.09,0,0,0,4.152-4.152c0-2.558-1.528-4.286-3.754-4.286a8.015,8.015,0,0,0-2.325.333v7.673A5.055,5.055,0,0,0,298.753,71.005Z" fill="#fff"/><path d="M309.585,59.047H315.5a1.516,1.516,0,0,0-.8,1.262V73.7c0,3.72.531,5.68,4.285,5.68a3.879,3.879,0,0,0,3.256-1.494,5.135,5.135,0,0,0,.7-3.123v-1.2L322.9,60.309a1.475,1.475,0,0,0-.764-1.262h5.88a1.535,1.535,0,0,0-.764,1.394v14.55c0,5.515-3.455,8.7-8.305,8.7-5.282,0-8.6-3.122-8.6-8.769V60.309A1.552,1.552,0,0,0,309.585,59.047Z" fill="#fff"/><path d="M330.383,76.619a4.982,4.982,0,0,0,4.418,2.757,3.74,3.74,0,0,0,3.886-3.753c0-2.26-1.727-3.455-4.385-5.183-2.525-1.628-3.72-3.521-3.72-6.178a5.681,5.681,0,0,1,5.746-5.814c1.064,0,1.993.333,2.824.333a3.341,3.341,0,0,0,1.362-.366v6.212c-1.1-1.527-2.193-2.292-3.454-2.292a1.963,1.963,0,0,0-2.126,2.026c0,1.462,1.427,2.193,3.653,3.721,2.957,2.026,4.351,4.119,4.351,7.541a7.6,7.6,0,0,1-7.971,7.972c-1.329,0-2.492-.432-3.389-.432a3.114,3.114,0,0,0-1.195.332Z" fill="#fff"/><path d="M3.089,110.976V87.689a3.665,3.665,0,0,0,1.727.632c1,0,2.591-.6,4.85-.6A12.192,12.192,0,0,1,22.09,100.279c0,7.01-4.916,11.959-13.786,11.959H2.325A1.646,1.646,0,0,0,3.089,110.976Zm4.385-2.89c.232,0,.464.033.7.033,5.747,0,9.268-3.621,9.268-8.172a7.846,7.846,0,0,0-8.1-7.906c-.531,0-1.163.034-1.86.1Z" fill="#fff"/><path d="M39.268,110.843a2.884,2.884,0,0,0-.133-.93l-1.064-2.923H28.837l-.964,2.923a3.248,3.248,0,0,0-.166.963,3.685,3.685,0,0,0,.333,1.362H21.861a5.773,5.773,0,0,0,1.2-1.96l7.707-20.362a2.471,2.471,0,0,0,.166-.931,6.44,6.44,0,0,0-.1-.73h5.082l7.973,22.023a6.054,6.054,0,0,0,1.229,1.96H38.936A3.71,3.71,0,0,0,39.268,110.843Zm-2.591-8.138-3.223-9.534-3.188,9.534Z" fill="#fff"/><path d="M46.711,110.976V87.956a3.132,3.132,0,0,0,1.561.465c.831,0,2.259-.4,4.385-.4,4.651,0,7.374,2.724,7.374,7.142a5.582,5.582,0,0,1-3.553,5.681,8.666,8.666,0,0,1,5.812,6.145c.466,1.561.4,3.488,1.728,5.248h-5.88a2.4,2.4,0,0,0,.665-1.528,8.6,8.6,0,0,0-7.741-8.038v8.3a1.6,1.6,0,0,0,.764,1.262H45.98A1.552,1.552,0,0,0,46.711,110.976Zm5.647-12.091a3.372,3.372,0,0,0,.133-6.743,8.558,8.558,0,0,0-1.429.166v6.477C51.66,98.852,52.126,98.885,52.358,98.885Z" fill="#fff"/><path d="M65.482,88.255H71.4a1.594,1.594,0,0,0-.765,1.262v21.492a1.454,1.454,0,0,0,.765,1.229H65.482a1.6,1.6,0,0,0,.764-1.262V89.517A1.6,1.6,0,0,0,65.482,88.255Z" fill="#fff"/><path d="M205.428,112.869c-7.674,0-12.823-5.447-12.823-12.457a13.087,13.087,0,0,1,2.857-8.27,11.708,11.708,0,0,1,9.135-4.453c1.86,0,3.256.267,4.119.267a3.818,3.818,0,0,0,1.561-.366v6.477a7.707,7.707,0,0,0-5.249-2.225,8.154,8.154,0,0,0-8.071,8.3,8.282,8.282,0,0,0,8.6,8.338,8.75,8.75,0,0,0,3.852-1.095v-5.15H203.8a1.7,1.7,0,0,0-1.3.765v-5.78a1.7,1.7,0,0,0,1.3.8h9.966v10.43a2.247,2.247,0,0,0,.63,1.2C211.273,111.773,208.55,112.869,205.428,112.869Z" fill="#fff"/><path d="M231.973,110.843a2.884,2.884,0,0,0-.133-.93l-1.064-2.923h-9.234l-.964,2.923a3.28,3.28,0,0,0-.166.963,3.685,3.685,0,0,0,.333,1.362h-6.179a5.773,5.773,0,0,0,1.2-1.96l7.707-20.362a2.471,2.471,0,0,0,.166-.931,6.44,6.44,0,0,0-.1-.73h5.082l7.973,22.023a6.054,6.054,0,0,0,1.229,1.96h-6.178A3.71,3.71,0,0,0,231.973,110.843Zm-2.591-8.138-3.223-9.534-3.188,9.534Z" fill="#fff"/><path d="M238.686,88.255h5.945a1.6,1.6,0,0,0-.764,1.262v18.768h6.876a1.545,1.545,0,0,0,1.23-.764v4.717H238.686a1.6,1.6,0,0,0,.763-1.262V89.517A1.6,1.6,0,0,0,238.686,88.255Z" fill="#fff"/><path d="M258.951,102.239v6.046h7.475a1.541,1.541,0,0,0,1.228-.764v4.717H253.77a1.6,1.6,0,0,0,.763-1.262V89.517a1.6,1.6,0,0,0-.763-1.262h13.884v4.717a1.544,1.544,0,0,0-1.228-.764h-7.475v6.078h4.684a1.505,1.505,0,0,0,1.262-.764V103a1.6,1.6,0,0,0-1.262-.765Z" fill="#fff"/><path d="M271.012,110.976V87.956a3.132,3.132,0,0,0,1.561.465c.83,0,2.259-.4,4.385-.4,4.65,0,7.374,2.724,7.374,7.142a5.581,5.581,0,0,1-3.554,5.681,8.665,8.665,0,0,1,5.813,6.145c.466,1.561.4,3.488,1.727,5.248h-5.88a2.392,2.392,0,0,0,.666-1.528,8.6,8.6,0,0,0-7.741-8.038v8.3a1.6,1.6,0,0,0,.764,1.262h-5.846A1.555,1.555,0,0,0,271.012,110.976Zm5.647-12.091a3.372,3.372,0,0,0,.133-6.743,8.558,8.558,0,0,0-1.429.166v6.477C275.961,98.852,276.427,98.885,276.659,98.885Z" fill="#fff"/><path d="M289.783,88.255H295.7a1.6,1.6,0,0,0-.764,1.262v21.492a1.455,1.455,0,0,0,.764,1.229h-5.913a1.6,1.6,0,0,0,.764-1.262V89.517A1.6,1.6,0,0,0,289.783,88.255Z" fill="#fff"/><path d="M303.637,100.213l-1.3,9.8a3.429,3.429,0,0,0-.033.564,2.79,2.79,0,0,0,.532,1.661h-5.614a4.23,4.23,0,0,0,.8-1.893l2.957-20.563v-.2a2.279,2.279,0,0,0-.5-1.328H305.3l3.72,10.8c.133.4.565,1.827,1.163,4.318.5-1.927.963-3.355,1.3-4.351l3.62-10.763h4.817a2.279,2.279,0,0,0-.5,1.328v.2l2.957,20.563a4.232,4.232,0,0,0,.8,1.893h-5.58a2.8,2.8,0,0,0,.531-1.661,3.429,3.429,0,0,0-.033-.564l-1.329-9.767q-.15-1.2-.4-4.684c-.6,2.459-1.063,3.854-1.229,4.319l-4.949,12.988L305.132,99.98a22.683,22.683,0,0,1-1.1-4.418C303.936,97.323,303.8,98.885,303.637,100.213Z" fill="#fff"/><path d="M324.27,88.255h5.912a1.514,1.514,0,0,0-.8,1.262V102.9c0,3.72.531,5.68,4.285,5.68a3.88,3.88,0,0,0,3.256-1.494,5.135,5.135,0,0,0,.7-3.123v-1.2l-.033-13.254a1.476,1.476,0,0,0-.765-1.262h5.88a1.535,1.535,0,0,0-.764,1.394V104.2c0,5.515-3.455,8.7-8.3,8.7-5.282,0-8.6-3.122-8.6-8.769V89.517A1.55,1.55,0,0,0,324.27,88.255Z" fill="#fff"/></g></g></svg>