<svg xmlns="http://www.w3.org/2000/svg" viewBox="0 0 168.043 64.681"><g id="Layer_2" data-name="Layer 2"><g id="Layer_3" data-name="Layer 3"><path d="M49.826,0a15.979,15.979,0,0,1,6.6,1.341A8.457,8.457,0,0,1,61.38,5.468a11.583,11.583,0,0,1,1.237,4.745,11.2,11.2,0,0,1-1.65,5.983,7.827,7.827,0,0,1-6.5,3.2,4.845,4.845,0,0,1-2.166-.414q-2.476-1.857-2.476-3.3a2.822,2.822,0,0,1,1.031-2.993,5.571,5.571,0,0,1,2.27,1.548q1.65,1.446,2.269,1.445a3.689,3.689,0,0,0,3.3-1.754A7.246,7.246,0,0,0,59.832,9.9a8.572,8.572,0,0,0-.31-2.269Q56.53.62,49.517.619A12.032,12.032,0,0,0,42.089,3.3q-4.952,5.16-4.951,11.245,0,4.642,4.435,14.235T46.009,43.43a17.725,17.725,0,0,1-6.19,13.514,30.686,30.686,0,0,1-4.951,3.662,34.253,34.253,0,0,1-5.777,2.734,36.057,36.057,0,0,1-8.769,1.135q-10.729,0-15.473-5.88Q0,52.612,0,47.144a13.347,13.347,0,0,1,.619-3.817A15.426,15.426,0,0,1,3.766,36.57a10,10,0,0,1,5.828-3.765c.756-.068,1.409-.1,1.96-.1H13q6.809,0,8.149,3.2a12,12,0,0,1,.929,4.333,3.462,3.462,0,0,1-1.65,3.3,6.836,6.836,0,0,1-2.785-.515A6.962,6.962,0,0,1,18.1,41.16a6.865,6.865,0,0,0,.464-2.062,2.752,2.752,0,0,0-.1-.826A6.941,6.941,0,0,0,13.1,35.693a8.105,8.105,0,0,0-3.766.877,10.579,10.579,0,0,0-3.043,2.372,13.469,13.469,0,0,0-2.218,3.405,14.63,14.63,0,0,0-1.186,3.971,19.963,19.963,0,0,0,1.754,8.047A14.137,14.137,0,0,0,9.8,60.658a19.2,19.2,0,0,0,10.728,3.095,22.516,22.516,0,0,0,9.8-2.064q3.2-1.958,4.332-2.785a14.918,14.918,0,0,0,3.611-3.611q.515-.824,1.238-2.114t1.754-3.043a15.682,15.682,0,0,0,.721-4.952q0-5.26-4.126-15.784-4.022-10.623-4.023-15.267,0-9.076,10.935-13.514A20.745,20.745,0,0,1,49.826,0Z" fill="#fff"/><path d="M62.2,44.152a1.346,1.346,0,0,1,1.135.412L60.655,48.9q-1.341,2.167-2.681,4.333Q54.361,58.8,53.95,62q-.207,1.446,1.238,1.444,1.548,0,7.737-2.992a77.641,77.641,0,0,0,6.189-8.974l4.127-7.015,3.3.1q-.618,1.344-2.991,5.314t-6.6,10.573v.825a3.322,3.322,0,0,0,.1.826q.2,1.136.721,1.238,2.063.517,5.778-1.96A22.44,22.44,0,0,0,78.3,57.15q-1.446,4.023-8.872,7.221a7.216,7.216,0,0,1-2.27.31,4.116,4.116,0,0,1-2.887-1.032l-1.342-2.373q-7.427,3.3-9.594,3.3-2.993,0-2.991-2.579,0-1.754,3.4-7.531,1.34-2.166,3.043-4.745t3.972-5.571Z" fill="#fff"/><path d="M102.538,22.592Q98.206,30.02,88.922,44.564a2.878,2.878,0,0,0,.979.052q.566-.05,1.393-.154l3.61-.31q3.612,0,3.612,2.992,0,11.14-13.1,16.815a20.7,20.7,0,0,0-2.424.206,20.309,20.309,0,0,1-2.425.206,7.159,7.159,0,0,1-2.785-.516,4.65,4.65,0,0,1-1.031-2.888q0-2.062,7.324-14.545Q86.55,42.5,90.107,36.415t8.2-14.339a5.711,5.711,0,0,1,3.4-1.031,2.628,2.628,0,0,1,.929.1ZM80.05,60.864q0,2.167,3.714,2.166H84.8q9.18-4.537,10.316-15.371A6.942,6.942,0,0,0,90.778,45.6q-2.993,0-5.467,4.539-1.136,1.855-4.023,8.046A6.027,6.027,0,0,0,80.05,60.864Zm16.712.825q0,.209-6.19,2.786.411-.93,2.785-1.857a30.779,30.779,0,0,0,3.095-1.548,30.113,30.113,0,0,0,2.476-2.063,11.819,11.819,0,0,1,2.579-1.857Q100.579,59.73,96.762,61.689Z" fill="#fff"/><path d="M106.974,54.881q-.209.309-1.548,2.579t-3.817,6.6l-3.4-.1q1.857-3.816,5.57-9.9,2.268-3.61,3.714-5.984t2.166-3.714l3.095.1q0,1.341-.309,1.444.309.827,1.135.31,4.952-2.167,6.705-2.167a4.21,4.21,0,0,1,3.405,1.65,2.331,2.331,0,0,0,1.546.619,6.023,6.023,0,0,0,2.683-1.031,7.5,7.5,0,0,1,2.682-1.031q6.19,0,6.189,2.991-1.65,3.508-3.61,6.86a71.963,71.963,0,0,1-4.332,6.551v1.547c0,.689.239,1.067.721,1.135a8.867,8.867,0,0,0,5.984-2.476q1.134-1.34,2.269-2.579t2.27-2.579q-2.994,5.471-7.324,7.53a11.29,11.29,0,0,1-4.539,1.239,5.561,5.561,0,0,1-2.27-.413,2.508,2.508,0,0,1-.723-1.857q0-1.443,2.167-5.055.823-1.237,1.651-2.475T130.7,52.1a27.726,27.726,0,0,0,2.682-5.365,2.856,2.856,0,0,0-2.785-1.753,6.793,6.793,0,0,0-2.992.825L124.1,47.659,114.092,64.371q-.62,0-1.858-.1t-1.856-.1q2.888-4.229,5.364-8.613t4.745-9.027a1.831,1.831,0,0,0-1.96-1.341,7.426,7.426,0,0,0-4.951,1.65A35.49,35.49,0,0,0,106.974,54.881Z" fill="#fff"/><path d="M149.578,44.358,140.707,62.1a1.616,1.616,0,0,0,1.65,1.238,12.283,12.283,0,0,0,2.992-1.135l6.912-5.88q-4.232,4.851-4.951,5.571a10.484,10.484,0,0,1-6.6,2.682,8.071,8.071,0,0,1-.877-.052c-.309-.035-.635-.086-.98-.155a2.188,2.188,0,0,1-1.96-2.475,1.264,1.264,0,0,1,.309-.929l9.388-16.711Zm4.231-7.427a1.908,1.908,0,0,1-1.239,1.857,3.223,3.223,0,0,1-.928.206,1.6,1.6,0,0,1-1.445-1.135,1.557,1.557,0,0,1-.206-.619q0-1.752,1.96-1.753Q153.808,35.487,153.809,36.931Z" fill="#fff"/><path d="M165.413,33.218a6.514,6.514,0,0,1,1.6-.31,1.988,1.988,0,0,1,1.031.31l-6.5,11.244,5.674.412v.413h-2.166a4.408,4.408,0,0,1-.825-.1H163.2q-1.651,0-3.4,2.373-1.137,1.855-2.27,3.714l-5.364,8.458a3.351,3.351,0,0,0-.722,1.857q0,1.032,1.341,1.754a9.511,9.511,0,0,0,6.086-2.476q1.031-.928,2.373-2.063t2.992-2.579v.825q-.93.828-2.322,1.96t-3.352,2.579q-3.612,2.891-6.7,2.889a5.884,5.884,0,0,1-3.611-1.239q-.72-.618,0-1.96,4.332-6.809,8.15-13.719t7.426-14.03A6.571,6.571,0,0,0,165.413,33.218Z" fill="#fff"/></g></g></svg>