<svg xmlns="http://www.w3.org/2000/svg" viewBox="0 0 170.384 19.381"><g id="Layer_2" data-name="Layer 2"><g id="Layer_3" data-name="Layer 3"><path d="M3.8,17.9V3.54H.942A1.185,1.185,0,0,0,0,4.126V.484H10.977V4.126a1.228,1.228,0,0,0-.968-.586H7.156V17.929a1.118,1.118,0,0,0,.586.942H3.209A1.225,1.225,0,0,0,3.8,17.9Z" fill="#fff"/><path d="M12.049.484h4.533a1.162,1.162,0,0,0-.611.968V11.715c0,2.852.407,4.354,3.285,4.354a2.975,2.975,0,0,0,2.5-1.145,3.942,3.942,0,0,0,.534-2.394v-.917L22.261,1.452a1.13,1.13,0,0,0-.586-.968h4.508a1.179,1.179,0,0,0-.586,1.07V12.708c0,4.228-2.649,6.673-6.367,6.673-4.048,0-6.6-2.395-6.6-6.724V1.452A1.189,1.189,0,0,0,12.049.484Z" fill="#fff"/><path d="M28.224.484h4.558a1.225,1.225,0,0,0-.586.968V15.841h5.273a1.185,1.185,0,0,0,.942-.586v3.616H28.224a1.227,1.227,0,0,0,.586-.968V1.452A1.227,1.227,0,0,0,28.224.484Z" fill="#fff"/><path d="M39.992.484h4.533a1.227,1.227,0,0,0-.586.968V17.929a1.12,1.12,0,0,0,.586.942H39.992a1.225,1.225,0,0,0,.586-.968V1.452A1.225,1.225,0,0,0,39.992.484Z" fill="#fff"/><path d="M46.642,13.956a3.819,3.819,0,0,0,3.386,2.113,2.867,2.867,0,0,0,2.98-2.877c0-1.732-1.324-2.649-3.362-3.973a5.313,5.313,0,0,1-2.852-4.737A4.356,4.356,0,0,1,51.2.025c.815,0,1.528.255,2.164.255A2.554,2.554,0,0,0,54.408,0V4.763A3.366,3.366,0,0,0,51.76,3.005a1.506,1.506,0,0,0-1.63,1.554c0,1.121,1.1,1.68,2.8,2.852,2.266,1.554,3.336,3.158,3.336,5.781A5.829,5.829,0,0,1,50.155,19.3c-1.018,0-1.909-.331-2.6-.331a2.378,2.378,0,0,0-.916.255Z" fill="#fff"/><path d="M70.609,18.871H66.1a1.227,1.227,0,0,0,.586-.968V1.452A1.227,1.227,0,0,0,66.1.484h3.947L75.906,10.6A18.784,18.784,0,0,1,77.46,14.16a21.466,21.466,0,0,1-.331-3.565V1.452a1.225,1.225,0,0,0-.586-.968h4.508a1.193,1.193,0,0,0-.561.968V17.929a1.09,1.09,0,0,0,.561.942H77.129l-6.138-10.8a11.682,11.682,0,0,1-1.221-2.9c.177,1.63.279,2.7.279,3.158v9.6A1.091,1.091,0,0,0,70.609,18.871Z" fill="#fff"/><path d="M94.985,17.8a2.2,2.2,0,0,0-.1-.713l-.816-2.241H86.989l-.739,2.241a2.5,2.5,0,0,0-.127.738,2.835,2.835,0,0,0,.255,1.044H81.641a4.418,4.418,0,0,0,.917-1.5L88.466,1.757a1.887,1.887,0,0,0,.128-.713,5.015,5.015,0,0,0-.077-.56h3.9l6.112,16.884a4.671,4.671,0,0,0,.943,1.5H94.73A2.823,2.823,0,0,0,94.985,17.8ZM93,11.562l-2.47-7.309-2.445,7.309Z" fill="#fff"/><path d="M103.877,9.652l-.993,7.513a2.564,2.564,0,0,0-.026.433,2.146,2.146,0,0,0,.408,1.273h-4.3a3.253,3.253,0,0,0,.611-1.451L101.84,1.655V1.5a1.754,1.754,0,0,0-.383-1.019h3.693L108,8.761c.1.305.434,1.4.892,3.31.381-1.476.738-2.572.993-3.336L112.663.484h3.692a1.757,1.757,0,0,0-.381,1.019v.152L118.24,17.42a3.233,3.233,0,0,0,.612,1.451h-4.279a2.144,2.144,0,0,0,.407-1.273,2.665,2.665,0,0,0-.025-.433l-1.018-7.487q-.117-.918-.306-3.591c-.459,1.885-.816,2.954-.943,3.31l-3.794,9.957-3.872-9.88a17.518,17.518,0,0,1-.839-3.387C104.105,7.437,104,8.634,103.877,9.652Z" fill="#fff"/><path d="M131.538,17.8a2.2,2.2,0,0,0-.1-.713l-.816-2.241h-7.079l-.739,2.241a2.5,2.5,0,0,0-.127.738,2.816,2.816,0,0,0,.255,1.044h-4.738a4.4,4.4,0,0,0,.917-1.5l5.909-15.611a1.888,1.888,0,0,0,.127-.713,4.791,4.791,0,0,0-.077-.56h3.9l6.112,16.884a4.654,4.654,0,0,0,.943,1.5h-4.738A2.823,2.823,0,0,0,131.538,17.8Zm-1.986-6.24-2.47-7.309-2.445,7.309Z" fill="#fff"/><path d="M140.431,9.652l-.993,7.513a2.564,2.564,0,0,0-.026.433,2.151,2.151,0,0,0,.407,1.273h-4.3a3.253,3.253,0,0,0,.611-1.451l2.267-15.765V1.5a1.754,1.754,0,0,0-.383-1.019H141.7l2.852,8.277c.1.305.433,1.4.891,3.31.382-1.476.739-2.572.993-3.336L149.217.484h3.692a1.752,1.752,0,0,0-.382,1.019v.152l2.267,15.765a3.242,3.242,0,0,0,.611,1.451h-4.278a2.144,2.144,0,0,0,.407-1.273,2.665,2.665,0,0,0-.025-.433L150.49,9.678q-.115-.918-.305-3.591c-.459,1.885-.816,2.954-.943,3.31l-3.795,9.957-3.871-9.88a17.505,17.505,0,0,1-.84-3.387C140.659,7.437,140.558,8.634,140.431,9.652Z" fill="#fff"/><path d="M156.25.484h4.533a1.162,1.162,0,0,0-.611.968V11.715c0,2.852.407,4.354,3.285,4.354a2.975,2.975,0,0,0,2.5-1.145,3.935,3.935,0,0,0,.534-2.394v-.917l-.025-10.161a1.13,1.13,0,0,0-.586-.968h4.508a1.179,1.179,0,0,0-.586,1.07V12.708c0,4.228-2.649,6.673-6.366,6.673-4.049,0-6.6-2.395-6.6-6.724V1.452A1.189,1.189,0,0,0,156.25.484Z" fill="#fff"/></g></g></svg>