<svg xmlns="http://www.w3.org/2000/svg" viewBox="0 0 166.128 19.381"><g id="Layer_2" data-name="Layer 2"><g id="Layer_3" data-name="Layer 3"><path d="M0,.484H4.533a1.162,1.162,0,0,0-.611.968V11.715c0,2.852.407,4.354,3.285,4.354a2.975,2.975,0,0,0,2.5-1.145,3.935,3.935,0,0,0,.534-2.394v-.917L10.212,1.452A1.13,1.13,0,0,0,9.626.484h4.508a1.179,1.179,0,0,0-.586,1.07V12.708c0,4.228-2.649,6.673-6.366,6.673-4.049,0-6.6-2.395-6.6-6.724V1.452A1.189,1.189,0,0,0,0,.484Z" fill="#fff"/><path d="M16.786,17.9V.153a3.088,3.088,0,0,0,1.172.306c.56,0,1.706-.28,3.438-.28,4.151,0,6.57,2.393,6.57,6.366a6.01,6.01,0,0,1-6.239,6.316,5.138,5.138,0,0,1-1.605-.357v5.4a1.16,1.16,0,0,0,.561.968H16.2A1.188,1.188,0,0,0,16.786,17.9ZM21.6,9.652a3.136,3.136,0,0,0,3.183-3.183c0-1.961-1.172-3.285-2.878-3.285a6.168,6.168,0,0,0-1.783.254V9.321A3.9,3.9,0,0,0,21.6,9.652Z" fill="#fff"/><path d="M30.032.484h4.559a1.225,1.225,0,0,0-.586.968V15.841h5.272a1.187,1.187,0,0,0,.943-.586v3.616H30.032a1.225,1.225,0,0,0,.586-.968V1.452A1.225,1.225,0,0,0,30.032.484Z" fill="#fff"/><path d="M43.3,2.827a9.5,9.5,0,0,1,13.523,0,9.778,9.778,0,0,1,0,13.7,9.5,9.5,0,0,1-13.523,0,9.709,9.709,0,0,1-2.826-6.876A9.532,9.532,0,0,1,43.3,2.827Zm6.774,13.217a6.237,6.237,0,0,0,6.112-6.366,6.118,6.118,0,1,0-12.224,0A6.253,6.253,0,0,0,50.077,16.044Z" fill="#fff"/><path d="M72.824,17.8a2.2,2.2,0,0,0-.1-.713l-.816-2.241H64.828l-.739,2.241a2.5,2.5,0,0,0-.127.738,2.816,2.816,0,0,0,.255,1.044H59.479a4.4,4.4,0,0,0,.917-1.5L66.305,1.757a1.887,1.887,0,0,0,.128-.713,4.8,4.8,0,0,0-.078-.56h3.9l6.112,16.884a4.654,4.654,0,0,0,.943,1.5H72.569A2.823,2.823,0,0,0,72.824,17.8Zm-1.986-6.24-2.47-7.309-2.445,7.309Z" fill="#fff"/><path d="M78.558,17.9V.051a2.828,2.828,0,0,0,1.324.484c.764,0,1.986-.459,3.719-.459A9.347,9.347,0,0,1,93.125,9.7c0,5.373-3.77,9.168-10.569,9.168H77.972A1.263,1.263,0,0,0,78.558,17.9Zm3.361-2.215c.179,0,.356.025.535.025,4.406,0,7.106-2.775,7.106-6.265a6.014,6.014,0,0,0-6.214-6.06c-.408,0-.892.025-1.427.076Z" fill="#fff"/><path d="M103.623,17.9V1.452a1.225,1.225,0,0,0-.586-.968h10.62V4.1a1.185,1.185,0,0,0-.942-.586h-5.731v4.66h3.643a1.113,1.113,0,0,0,.941-.586v4.2a1.222,1.222,0,0,0-.967-.586h-3.617v6.7a1.225,1.225,0,0,0,.586.968h-4.533A1.225,1.225,0,0,0,103.623,17.9Z" fill="#fff"/><path d="M117.606,2.827a9.5,9.5,0,0,1,13.524,0,9.778,9.778,0,0,1,0,13.7,9.5,9.5,0,0,1-13.524,0,9.713,9.713,0,0,1-2.826-6.876A9.532,9.532,0,0,1,117.606,2.827Zm6.775,13.217a6.237,6.237,0,0,0,6.112-6.366,6.118,6.118,0,1,0-12.224,0A6.253,6.253,0,0,0,124.381,16.044Z" fill="#fff"/><path d="M138.774,17.9V3.54h-2.852a1.187,1.187,0,0,0-.943.586V.484h10.977V4.126a1.225,1.225,0,0,0-.968-.586h-2.852V17.929a1.118,1.118,0,0,0,.586.942h-4.534A1.225,1.225,0,0,0,138.774,17.9Z" fill="#fff"/><path d="M149.8,2.827a9.5,9.5,0,0,1,13.523,0,9.778,9.778,0,0,1,0,13.7,9.5,9.5,0,0,1-13.523,0,9.709,9.709,0,0,1-2.826-6.876A9.532,9.532,0,0,1,149.8,2.827Zm6.774,13.217a6.237,6.237,0,0,0,6.112-6.366,6.118,6.118,0,1,0-12.224,0A6.253,6.253,0,0,0,156.578,16.044Z" fill="#fff"/></g></g></svg>